<?xml version="1.0" encoding="utf-8"?>
<!-- Generator: Adobe Illustrator 23.0.2, SVG Export Plug-In . SVG Version: 6.00 Build 0)  -->
<svg version="1.1" id="Layer_1" xmlns="http://www.w3.org/2000/svg" xmlns:xlink="http://www.w3.org/1999/xlink" x="0px" y="0px"
	 viewBox="0 0 595.28 212.33" style="enable-background:new 0 0 595.28 212.33;" xml:space="preserve">
<style type="text/css">
	.st0{fill:#2A2561;}
	.st1{fill:#2B2662;}
	.st2{fill:#2A2461;}
	.st3{fill:#292360;}
	.st4{fill:#0BA79B;}
	.st5{fill:#2D2961;}
	.st6{fill:#14A89C;}
	.st7{fill:#199F93;}
	.st8{fill:#08A79B;}
</style>
<path class="st0" d="M595.57,209.65c-6.72,1.58-13.34,0.98-19.96-0.72c-10.67-2.73-16.86-10.09-20.84-19.84
	c-2.84-6.95-5.8-13.86-8.71-20.78c-0.15-0.36-0.35-0.69-0.54-1.08c-7.46,4.44-15.07,8.43-22.98,11.85
	c-5.81,2.51-11.68,4.87-17.69,6.84c-1.16,0.38-1.84,1.03-2.34,2.17c-3.03,6.87-6.16,13.7-9.21,20.57c-0.37,0.84-0.8,1.2-1.76,1.17
	c-2.42-0.08-4.84-0.03-7.49-0.03c0.46-1.13,0.85-2.17,1.3-3.17c3.11-6.95,6.26-13.87,9.33-20.84c0.49-1.11,1.14-1.65,2.28-1.99
	c14.77-4.39,29.07-9.93,42.63-17.3c7.66-4.17,15.05-8.76,21.82-14.29c1.04-0.85,1.31-0.58,1.76,0.5
	c5.12,12.32,10.28,24.63,15.46,36.93c0.9,2.14,1.98,4.2,3.23,6.17c3.25,5.1,7.5,8.77,13.71,9.67
	C595.57,206.88,595.57,208.26,595.57,209.65z"/>
<path class="st0" d="M382.43,212.62c-2.31-0.39-4.64-0.73-6.93-1.19c-7.05-1.42-13.76-3.66-19.36-8.43
	c-2.89-2.46-4.81-5.49-5.19-9.35c-0.08-0.84-0.13-1.33,1.11-1.09c3.39,0.67,6.82,1.14,10.24,1.65c0.74,0.11,1.25,0.43,1.72,1
	c4.5,5.57,10.56,8.32,17.47,9.37c5.27,0.8,10.55,0.87,15.75-0.55c3.65-1,6.92-2.68,9.31-5.73c0.5-0.64,1.07-0.58,1.71-0.59
	c5.93-0.12,11.87-0.24,17.83-0.37c0.17,0.46-0.26,0.75-0.5,1.09c-4.46,6.18-10.69,9.69-17.83,11.84c-3.61,1.09-7.31,1.74-11.06,2.07
	c-0.24,0.02-0.5-0.03-0.6,0.28C391.54,212.62,386.98,212.62,382.43,212.62z"/>
<path class="st1" d="M323.31,175.94c0-0.64,0-1.13,0-1.62c0-24.37,0.01-48.75-0.03-73.12c0-1.32,0.32-1.71,1.63-1.62
	c1.83,0.12,3.67,0.11,5.5,0c1.19-0.07,1.42,0.38,1.37,1.43c-0.07,1.83-0.02,3.67-0.02,5.5c0,24.82-0.01,49.64,0.02,74.46
	c0,1.34-0.15,1.77-1.68,1.37c-14.47-3.8-28.55-8.67-42.14-14.95c-0.79-0.37-1.37-0.94-1.92-1.59
	c-10.62-12.48-21.24-24.95-31.86-37.42c-0.21-0.25-0.45-0.49-0.91-0.99c0,1.27,0,2.23,0,3.18c0,25.86-0.01,51.72,0.04,77.58
	c0,1.4-0.41,1.77-1.74,1.68c-1.78-0.11-3.57-0.1-5.35,0c-1.09,0.06-1.44-0.21-1.42-1.37c0.08-4.01,0.03-8.02,0.03-12.04
	c0-25.56,0-51.13,0-76.69c0-3.84-0.65-7.5-3.07-10.63c-2.49-3.22-6.07-4.08-9.85-4.36c-2.92-0.22-2.93-0.14-2.93-3.01
	c0-0.45,0.03-0.89-0.01-1.34c-0.04-0.56,0.15-0.8,0.75-0.79c7.6,0.21,15.26-0.66,22.77,1.25c5.25,1.34,9.56,4.08,13.08,8.22
	c8.95,10.52,17.98,20.97,26.98,31.44c9.84,11.45,19.69,22.9,29.54,34.34C322.41,175.22,322.62,175.69,323.31,175.94z"/>
<path class="st2" d="M426.29,125.91c0,3.02-0.03,6.04,0.02,9.07c0.01,0.89-0.12,1.29-1.19,1.29c-3.61-0.02-3.56,0.02-4.34-3.73
	c-1.23-5.94-3.06-11.67-6.46-16.77c-4.56-6.84-11.13-10.34-19.14-11.3c-5.01-0.6-9.97-0.44-14.75,1.47
	c-11.99,4.81-11.55,19.46-5.22,25.39c3.94,3.69,8.42,6.55,12.99,9.33c9.42,5.73,19.2,10.89,28.27,17.19
	c4.87,3.38,9.33,7.24,11.88,12.8c3.01,6.57,2.82,13.34,1.03,20.17c-0.15,0.57-0.47,0.77-1.05,0.81c-6.08,0.33-12.17,0.49-18.26,0.52
	c-0.7,0-0.76-0.22-0.69-0.87c0.79-6.46-1.5-11.68-6.33-15.98c-5.1-4.54-10.96-7.94-16.74-11.49c-7.25-4.45-14.81-8.43-21.7-13.44
	c-5.55-4.04-10.17-8.95-12.1-15.71c-2.85-10-2.02-19.48,5.39-27.45c5.03-5.41,11.57-8.24,18.73-9.52
	c11.83-2.12,23.47-1.28,34.76,2.96c4.49,1.68,8.56,4.1,11.76,7.78c2.26,2.6,3.16,5.65,3.15,9.04
	C426.29,120.26,426.29,123.08,426.29,125.91C426.29,125.91,426.29,125.91,426.29,125.91z"/>
<path class="st3" d="M469.48,100.55c0.01,0.35,0.04,0.69,0.04,1.04c0,27.83,0,55.66,0,83.49c0,0.7,0.21,1.35-0.96,1.55
	c-5.36,0.91-10.71,1.85-16.11,2.53c-0.29,0.04-0.59,0.01-0.88,0.02c-0.69-0.01-1.39-0.1-2.08-0.02c-1.15,0.12-1.4-0.38-1.4-1.45
	c0.02-28.76,0.03-57.52-0.01-86.28c0-1.2,0.36-1.5,1.52-1.49c5.84,0.05,11.68,0.04,17.52,0.01
	C468,99.94,468.78,100.05,469.48,100.55z"/>
<path class="st4" d="M529.25,128.58c-1.65,3.69-3.15,7.05-4.65,10.41c-5.42,12.08-10.83,24.16-16.25,36.24
	c-0.2,0.44-0.28,0.97-0.84,1.15c-3.18,1.03-6.35,2.06-9.96,3.24c1.19-2.74,2.19-5.07,3.22-7.39c8.21-18.36,16.42-36.71,24.63-55.07
	c2.42-5.41,4.83-10.83,7.22-16.26c0.4-0.91,0.85-1.41,1.97-1.33c1.68,0.12,3.37,0.09,5.05,0c0.97-0.05,1.44,0.38,1.78,1.18
	c6.49,15.55,12.98,31.1,19.51,46.63c0.33,0.79,0.23,1.21-0.45,1.72c-5.28,4-10.81,7.63-16.54,10.96c-1.04,0.61-1.26,0.21-1.63-0.68
	c-4.02-9.61-8.08-19.21-12.13-28.81C529.93,130.02,529.65,129.46,529.25,128.58z"/>
<path class="st1" d="M294.02,174.99c0.35-0.23,0.6-0.02,0.86,0.1c11.52,5.15,23.43,9.15,35.61,12.4c1.04,0.28,1.29,0.72,1.28,1.71
	c-0.04,6.58-0.05,13.16,0,19.75c0.01,1.14-0.34,1.43-1.43,1.38c-1.78-0.09-3.56-0.06-5.34-0.01c-0.7,0.02-1.19-0.18-1.65-0.73
	c-9.67-11.38-19.35-22.75-29.03-34.12C294.21,175.33,294.12,175.15,294.02,174.99z"/>
<path class="st5" d="M329.54,67.19c2.43,1.61,5.02,0.7,7.64,1.04c-1.53-2.57-1.74-5.08-0.44-7.6c1.42-2.76,4.86-4.02,8.38-3.15
	c2.58,0.64,3.96,2.72,3.98,6.03c0.01,2.03-0.04,4.06,0.02,6.09c0.02,0.85-0.26,1.09-1.1,1.09c-5.25-0.03-10.5,0-15.75-0.02
	c-1.61-0.01-3.15-0.44-4.5-1.31c-0.66-0.42-1.2-0.48-1.92-0.17c-3.02,1.29-6.21,1.55-9.45,1.52c-4.56-0.03-9.11-0.03-13.67-0.03
	c-0.53,0-1.11-0.11-1.14,0.75c-0.09,3.63-2.89,5.9-7.37,6.18c-1.18,0.07-2.38-0.09-3.55-0.1c-1.52-0.02-1.79-0.68-1.63-1.98
	c0.09-0.78,0.37-0.84,1.05-0.7c1.76,0.34,3.54,0.47,5.31,0.16c1.85-0.33,2.96-1.53,3.16-3.25c0.09-0.76-0.1-1.07-0.92-1.06
	c-1.29,0.01-2.59,0.01-3.85-0.18c-3.25-0.5-4.99-2.69-5-6.14c-0.02-3.58,1.99-6.35,5.09-6.87c2.22-0.37,4.44-0.19,6.63,0.37
	c0.84,0.22,1.18,0.61,1.15,1.54c-0.07,2.43,0.02,4.86-0.05,7.28c-0.03,1.1,0.16,1.57,1.42,1.51c2.32-0.12,4.66-0.09,6.98,0
	c1.09,0.04,1.42-0.21,1.4-1.36c-0.07-4.75,0.06-9.51-0.08-14.27c-0.05-1.68,0.87-1.31,1.82-1.41c1.13-0.12,1.42,0.27,1.4,1.39
	c-0.06,4.8,0,9.61-0.05,14.42c-0.01,0.99,0.27,1.23,1.23,1.23c2.58-0.02,5.15,0.09,7.66-0.66c0.4-0.12,0.99-0.09,1.11-0.55
	c0.1-0.4-0.41-0.62-0.7-0.87c-1.31-1.13-2.64-2.24-4.19-3.06c-1.01-0.54-1.3-2.22-0.36-2.88c2.67-1.87,5.5-3.35,8.95-2.8
	c3.76,0.6,5.24,3.33,3.72,6.83C331.42,65.36,330.53,66.21,329.54,67.19z M346.09,65.3c-0.06-0.88-0.06-1.78-0.19-2.65
	c-0.21-1.41-0.85-2.53-2.38-2.83c-1.71-0.32-3.11,0.31-3.92,1.71c-1.8,3.1,0.09,6.59,3.68,6.59
	C346.63,68.12,346.07,68.86,346.09,65.3z M298.59,64.18c0-1.04,0.01-2.08,0-3.12c0-0.38,0.02-0.73-0.47-0.97
	c-1.64-0.79-4.32-0.35-5.34,0.94c-1.19,1.5-1.16,4.41,0.05,5.82c0.89,1.04,4.36,2.02,5.38,1.24c0.93-0.71,0.19-2.01,0.37-3.04
	C298.63,64.78,298.59,64.48,298.59,64.18z M321.91,61.38c1.83,1.15,3.32,2.45,4.84,3.7c0.26,0.21,0.44,0.5,0.89,0.3
	c0.89-0.41,1.97-2.6,1.78-3.74c-0.22-1.33-1.25-2.11-2.8-2.11C324.87,59.54,323.44,60.35,321.91,61.38z"/>
<path class="st6" d="M442.55,19.07c-1.72-3.16-1.56-6.37,0.28-8.57c1.82-2.17,5.27-3,8.3-2c2.04,0.68,3.37,2.52,3.46,5.04
	c0.09,2.37,0.01,4.75,0.05,7.13c0.01,0.69-0.22,0.99-0.93,0.98c-5.54-0.04-11.09-0.06-16.63-0.1c-1.31-0.01-2.55-0.39-3.64-1.11
	c-0.83-0.54-1.55-0.54-2.47-0.16c-2.74,1.11-5.64,1.41-8.59,1.39c-3.47-0.02-6.93-0.01-10.4-0.06c-0.93-0.01-1.38,0.19-1.52,1.25
	c-0.42,3.05-2.51,5.11-5.67,5.63c-1.96,0.32-3.95,0.18-5.93,0.04c-1.5-0.1-0.97-1.19-0.99-1.98c-0.02-1.07,0.67-0.79,1.33-0.69
	c1.81,0.27,3.62,0.57,5.44,0.01c0.89-0.27,1.65-0.71,2.18-1.44c0.51-0.7,0.79-1.59,0.49-2.38c-0.28-0.75-1.13-0.32-1.72-0.38
	c-1.28-0.13-2.57-0.06-3.82-0.45c-2.79-0.88-4.09-2.63-4.2-5.74c-0.11-3.21,1.35-5.79,3.85-6.72c2.78-1.04,5.54-0.63,8.31,0.11
	c0.87,0.23,0.83,0.87,0.83,1.51c0.01,2.43,0.08,4.86-0.04,7.28c-0.07,1.31,0.38,1.62,1.58,1.5c1.13-0.11,2.28-0.13,3.41-0.04
	c0.96,0.07,1.15-0.29,1.14-1.17c-0.04-4.9,0.01-9.8-0.04-14.71c-0.01-0.98,0.17-1.5,1.29-1.36c0.9,0.11,1.99-0.38,1.95,1.33
	c-0.09,4.8,0.02,9.61-0.07,14.41c-0.02,1.31,0.4,1.54,1.58,1.51c2.32-0.06,4.65,0.06,6.93-0.58c0.52-0.15,1.28-0.11,1.43-0.59
	c0.21-0.64-0.6-0.91-1.01-1.28c-1.17-1.06-2.46-1.98-3.84-2.77c-1-0.57-1.23-2.26-0.28-2.92c2.33-1.62,4.81-2.94,7.78-2.9
	c2.07,0.03,4,0.43,5.05,2.44c1.16,2.23,0.32,4.2-1.01,6.07c-0.39,0.55-1.43,0.96-1.16,1.53c0.34,0.73,1.41,0.87,2.24,0.9
	C439.13,19.12,440.75,19.07,442.55,19.07z M451.58,16.42c-0.01-1.03,0.05-2.07-0.18-3.09c-0.26-1.17-0.75-2.18-1.99-2.51
	c-1.4-0.36-2.78-0.25-3.81,0.91c-1.31,1.47-1.37,3.25-0.79,5c0.58,1.73,2.09,2.26,3.75,2.35C451.58,19.26,451.58,19.23,451.58,16.42
	z M407.45,15.24c0-1.04-0.04-2.07,0.01-3.11c0.03-0.75-0.33-1.12-0.99-1.22c-1.66-0.25-3.38-0.59-4.68,0.92
	c-1.33,1.55-1.36,3.34-0.65,5.14c0.69,1.74,3.28,2.81,5.64,2.1c1.48-0.45,0.34-1.96,0.66-2.95
	C407.52,15.86,407.45,15.54,407.45,15.24z M427.33,12.32c1.74,1.17,3.28,2.38,4.75,3.67c0.25,0.22,0.48,0.46,0.91,0.31
	c0.88-0.32,1.89-2.34,1.79-3.66c-0.11-1.37-0.99-2.01-2.22-2.15C430.59,10.26,428.96,11.12,427.33,12.32z"/>
<path class="st7" d="M411.27,40.86c-60.09,0-120.18,0-180.27-0.03c-0.66,0-1.92,0.6-1.93-0.58c-0.02-1.31,1.29-0.67,1.97-0.67
	c120.28-0.03,240.56-0.03,360.83-0.03c0.35,0,0.69,0,1.04,0.01c0.38,0.01,0.67,0.15,0.69,0.59c0.02,0.51-0.27,0.7-0.73,0.7
	c-0.4,0-0.79,0-1.19,0C531.54,40.85,471.4,40.85,411.27,40.86C411.27,40.86,411.27,40.86,411.27,40.86z"/>
<path class="st6" d="M328.28,19.08c-1.77-3.04-1.55-6.59,0.42-8.79c1.86-2.07,5.79-2.84,8.52-1.67c1.87,0.8,2.74,2.34,3,4.26
	c0.34,2.56,0.15,5.14,0.19,7.71c0.01,0.76-0.26,1.06-1.03,1.06c-9.06-0.02-18.12-0.02-27.19-0.01c-0.79,0-1.02-0.33-1.01-1.08
	c0.04-2.03,0.06-4.06,0.02-6.09c-0.07-3.88-1.88-3.94-4.87-3.74c-0.87,0.06-0.65,0.73-0.65,1.22c-0.02,2.77-0.05,5.55,0.01,8.32
	c0.02,1.03-0.27,1.42-1.33,1.37c-1.98-0.09-3.96,0.01-5.94-0.13c-6.57-0.48-9.37-4.31-7.96-10.82c0.18-0.83,0.13-1.77,1.36-2
	c2.29-0.42,2.23-0.49,1.78,1.74c-0.31,1.55-0.41,3.14-0.07,4.72c0.47,2.25,2.33,3.64,5.31,3.89c0.89,0.07,1.79-0.03,2.67,0.05
	c0.91,0.08,1.07-0.32,1.06-1.12c-0.05-2.47,0.06-4.96-0.06-7.43c-0.08-1.54,0.33-2.2,1.99-2.26c1.68-0.06,3.35-0.32,5.03-0.1
	c3.05,0.41,4.67,2.19,4.76,5.26c0.05,1.53,0.03,3.07,0,4.6c-0.02,0.75,0.22,1.07,1.02,1.03c1.09-0.06,2.18-0.08,3.27,0.01
	c0.98,0.08,1.13-0.33,1.12-1.19c-0.03-4.9,0.05-9.81-0.05-14.71c-0.03-1.37,0.6-1.36,1.59-1.36c1.02,0.01,1.75-0.05,1.72,1.42
	c-0.1,4.85-0.01,9.7-0.05,14.56c-0.01,0.95,0.2,1.34,1.22,1.26C325.46,19.01,326.79,19.08,328.28,19.08z M337.22,16.12
	c0-0.76,0.05-1.46-0.01-2.14c-0.18-1.99-1.15-3.1-2.79-3.27c-1.96-0.2-3.42,0.72-3.99,2.53c-0.67,2.1,0,4.36,1.59,5.25
	c1.56,0.87,3.35,0.91,4.89,0.43C337.72,18.67,337.07,17.04,337.22,16.12z"/>
<path class="st5" d="M520.91,68.14c-1.73-3.83-1.4-6.84,0.94-9.06c2.83-2.67,8.29-2.42,10.22,0.47c0.75,1.12,0.92,2.39,0.93,3.68
	c0.02,2.03-0.06,4.06,0.03,6.09c0.05,1.16-0.38,1.4-1.44,1.39c-5.64-0.05-11.29-0.03-16.93-0.03c-3.61,0-7.23-0.02-10.84,0.02
	c-0.92,0.01-1.32-0.18-1.28-1.23c0.09-2.03,0.03-4.06,0.01-6.09c-0.03-2.89-2.18-4.42-4.91-3.55c-0.72,0.23-0.5,0.77-0.5,1.21
	c-0.02,2.82-0.01,5.65-0.02,8.47c0,0.5,0.22,1.18-0.67,1.17c-2.77-0.04-5.56,0.21-8.3-0.28c-5.71-1.03-7.01-4.75-6.33-10.18
	c0.29-2.34,0.82-2.6,3.86-2.65c-0.36,1.18-0.71,2.35-0.87,3.57c-0.55,4.19,1.44,6.67,5.65,6.98c3.58,0.27,3.58,0.27,3.58-3.27
	c0-2.03,0.03-4.06-0.01-6.09c-0.01-0.72,0.17-1.05,0.94-1.16c2.22-0.32,4.44-0.49,6.65-0.12c2.19,0.37,3.68,1.99,3.89,4.27
	c0.16,1.77,0.15,3.56,0.13,5.34c-0.01,0.85,0.29,1.11,1.12,1.07c1.48-0.06,2.98-0.09,4.46,0c1.01,0.07,1.1-0.36,1.09-1.2
	c-0.03-4.85,0.06-9.71-0.05-14.56c-0.04-1.64,0.96-1.16,1.8-1.27c1.02-0.13,1.36,0.21,1.35,1.27c-0.06,4.8-0.01,9.61-0.06,14.41
	c-0.01,0.98,0.17,1.43,1.28,1.34C518.03,68.05,519.45,68.14,520.91,68.14z M529.85,65.17c0-0.79,0.09-1.6-0.02-2.37
	c-0.19-1.26-0.63-2.44-2.02-2.85c-1.29-0.37-2.6-0.32-3.61,0.67c-1.42,1.39-1.59,3.13-1.04,4.95c0.51,1.7,1.86,2.37,3.49,2.54
	C529.96,68.47,529.96,68.45,529.85,65.17z"/>
<path class="st4" d="M538.5,12.67c2.77-4.11,6.71-5.59,9.8-3.94c3.13,1.67,3.81,5.38,1.85,10.13c0.17,0.35,0.51,0.23,0.78,0.23
	c3.86,0.01,7.73-0.03,11.59,0.02c0.96,0.01,1.26-0.24,1.31-1.22c0.3-5.54-1.77-7.56-7.28-7.05c-0.64,0.06-1.62,0.75-1.68-0.78
	c-0.05-1.23,0.36-1.72,1.58-1.66c1.14,0.05,2.28-0.04,3.42,0.01c4.31,0.16,6.84,2.63,7.12,6.96c0.12,1.79-0.12,3.56-0.25,5.33
	c-0.07,0.96-0.69,0.93-1.35,0.94c-4.16,0.01-8.32,0.04-12.48,0.04c-8.52,0-17.03-0.02-25.55-0.01c-0.96,0-1.57-0.03-1.55-1.3
	c0.07-5.64,0.09-11.29,0-16.94c-0.02-1.47,0.6-1.51,1.74-1.57c1.35-0.07,1.51,0.47,1.49,1.62c-0.06,4.8,0.01,9.61-0.04,14.41
	c-0.01,0.98,0.27,1.29,1.24,1.23c1.28-0.08,2.58-0.08,3.86,0c0.98,0.06,1.3-0.25,1.28-1.24c-0.05-2.67,0.09-5.35-0.05-8.02
	c-0.08-1.5,0.7-1.38,1.71-1.45c1.14-0.07,1.63,0.23,1.48,1.45C538.41,10.66,538.5,11.49,538.5,12.67z M541.72,19.09
	c0.79,0,1.58,0.04,2.37-0.01c2.04-0.13,3.52-1.33,3.87-3.06c0.45-2.27-0.19-4.38-1.54-5.05c-1.55-0.77-3.62-0.16-5.15,1.52
	c-1.22,1.34-1.98,2.93-2.46,4.66c-0.53,1.95-0.53,1.95,1.43,1.95C540.73,19.09,541.22,19.09,541.72,19.09z"/>
<path class="st2" d="M469.53,200.81c0,2.57-0.03,5.14,0.02,7.72c0.02,0.88-0.11,1.32-1.17,1.28c-2.86-0.11-5.74,0.03-8.6-0.14
	c-6.19-0.37-9.71-3.44-11.02-9.47c-0.3-1.4-0.42-2.83-0.64-4.24c-0.1-0.63,0.13-0.82,0.77-0.9c6.61-0.87,13.21-1.81,19.73-3.2
	c0.72-0.15,0.94,0.05,0.92,0.79C469.5,195.37,469.53,198.09,469.53,200.81z"/>
<path class="st5" d="M438.67,61.86c2.93-4.31,6.75-5.75,10.06-3.88c2.88,1.63,3.53,5.83,1.41,10.16c0.85,0,1.6,0,2.36,0
	c3.61,0,7.23-0.04,10.84,0.03c1.04,0.02,1.44-0.17,1.48-1.33c0.2-5.42-1.74-7.3-7.17-6.87c-0.56,0.04-1.6,0.87-1.7-0.72
	c-0.08-1.32,0.39-1.78,1.62-1.78c1.63,0.01,3.26-0.11,4.88,0.25c3.15,0.69,4.88,2.53,5.33,5.73c0.27,1.93,0.06,3.85-0.05,5.78
	c-0.06,1.06-0.41,1.49-1.61,1.49c-10.29-0.05-20.59-0.03-30.88-0.03c-2.62,0-5.24-0.02-7.87,0.01c-0.83,0.01-1.23-0.1-1.22-1.11
	c0.05-5.79,0.06-11.59,0-17.38c-0.02-1.53,1-0.99,1.71-1.04c0.75-0.05,1.55-0.28,1.53,1.08c-0.08,4.85,0.01,9.7-0.06,14.55
	c-0.01,1.11,0.28,1.47,1.38,1.37c1.18-0.1,2.38-0.1,3.56-0.01c1.03,0.08,1.37-0.23,1.34-1.28c-0.07-2.67,0.05-5.35-0.05-8.02
	c-0.05-1.26,0.53-1.34,1.51-1.3c0.92,0.04,1.82-0.13,1.63,1.32C438.57,59.79,438.67,60.75,438.67,61.86z M438.68,68.14
	c1.62,0,3.15,0,4.68,0c3.66-0.01,5.38-2.04,4.75-5.61c-0.4-2.26-2.07-3.24-4.26-2.53c-0.92,0.3-1.69,0.82-2.32,1.54
	C439.91,63.36,439.03,65.52,438.68,68.14z"/>
<path class="st5" d="M400.41,70.57c-6.64,0-13.27,0.12-19.9-0.05c-3.99-0.1-5.95-2.45-5.97-6.45c-0.02-3.62,2.4-6.37,5.98-6.72
	c1.98-0.19,3.95-0.02,5.88,0.51c0.8,0.22,1.08,0.61,1.06,1.45c-0.05,2.53,0.04,5.05-0.05,7.58c-0.04,1.1,0.35,1.28,1.35,1.27
	c3.71-0.06,7.43-0.06,11.15,0c1.01,0.02,1.36-0.19,1.32-1.27c-0.09-2.72,0.04-5.45-0.05-8.17c-0.06-1.6,1.02-1.06,1.79-1.14
	c0.88-0.1,1.49-0.03,1.45,1.19c-0.09,2.77,0,5.55-0.05,8.32c-0.01,0.83,0.21,1.08,1.06,1.07c3.71-0.05,7.43-0.05,11.15,0
	c0.84,0.01,1.09-0.23,1.08-1.08c-0.05-2.77,0.05-5.55-0.05-8.32c-0.06-1.56,0.96-1.12,1.77-1.19c0.88-0.08,1.47-0.03,1.44,1.19
	c-0.09,3.56-0.06,7.13-0.01,10.7c0.01,0.95-0.2,1.26-1.22,1.25c-6.39-0.05-12.78-0.03-19.17-0.03
	C400.41,70.65,400.41,70.61,400.41,70.57z M384.34,64.14C384.34,64.14,384.34,64.14,384.34,64.14c0.01-0.99,0.01-1.98,0.01-2.97
	c0-0.44,0.07-0.88-0.53-1.07c-2.8-0.87-5.52-0.4-6.09,3.08c-0.48,2.97,1.16,4.84,4.22,4.97c2.39,0.1,2.39,0.1,2.4-2.23
	C384.34,65.33,384.34,64.74,384.34,64.14z"/>
<path class="st6" d="M491.57,8.54c-0.45,1.47-0.89,2.92-0.89,4.47c0,3.77,1.57,5.57,5.27,6.05c3.98,0.51,4,0.49,3.98-3.43
	c-0.01-1.83,0.06-3.67-0.04-5.49c-0.07-1.3,0.43-1.71,1.69-1.78c1.67-0.08,3.34-0.44,5.02-0.2c3.54,0.51,5,2.15,5.1,5.73
	c0.04,1.38,0.05,2.77-0.01,4.16c-0.04,0.86,0.26,1.11,1.1,1.06c1.57-0.09,3.63,0.51,4.6-0.27c1.02-0.83,0.26-2.96,0.31-4.52
	c0.06-1.58,0.07-3.17,0-4.75c-0.07-1.43,0.9-1.1,1.69-1.13c0.8-0.03,1.56-0.17,1.54,1.12c-0.04,3.61,0.02,7.22,0.1,10.84
	c0.02,0.95-0.23,1.3-1.24,1.29c-3.32-0.06-6.63-0.06-9.95-0.01c-0.97,0.01-1.31-0.29-1.27-1.27c0.07-1.93,0.05-3.86,0.02-5.79
	c-0.05-3.1-1.13-4.06-4.2-3.93c-0.98,0.04-1.38,0.31-1.35,1.38c0.08,2.72-0.02,5.45,0.06,8.17c0.03,1.1-0.3,1.51-1.42,1.46
	c-2.71-0.12-5.46,0.18-8.13-0.44c-4.41-1.03-6.52-4.09-6.02-8.62c0.04-0.34,0.07-0.69,0.11-1.03
	C487.95,8.89,488.62,8.36,491.57,8.54z"/>
<path class="st6" d="M369.8,15.03c0,1.68-0.09,3.37,0.03,5.05c0.1,1.38-0.43,1.66-1.71,1.6c-2.22-0.11-4.45,0-6.68-0.03
	c-0.8-0.01-1.13,0.28-1.26,1.07c-0.61,3.56-2.7,5.48-6.39,5.87c-1.68,0.17-3.36,0.04-5.04-0.04c-1.65-0.09-1.14-1.22-1.12-2.12
	c0.02-1.26,0.88-0.59,1.37-0.53c1.92,0.25,3.82,0.52,5.72-0.14c1.49-0.52,2.18-1.6,2.41-3.07c0.12-0.76-0.16-1.08-0.96-1.06
	c-1.09,0.02-2.18-0.02-3.26-0.11c-3.39-0.29-5.4-2.31-5.6-5.59c-0.24-3.9,1.61-6.77,4.84-7.5c2.38-0.54,4.71-0.22,7.04,0.36
	c0.73,0.18,1.01,0.55,1,1.34c-0.05,2.62,0.02,5.25-0.04,7.87c-0.02,0.93,0.26,1.21,1.17,1.16c1.43-0.08,2.87-0.1,4.3-0.04
	c0.86,0.04,1.07-0.24,1.06-1.07c-0.05-2.77,0.07-5.55-0.05-8.31c-0.07-1.46,0.75-1.27,1.66-1.31c0.96-0.04,1.62,0.01,1.56,1.28
	c-0.09,1.78-0.02,3.56-0.02,5.34C369.81,15.03,369.81,15.03,369.8,15.03z M357.2,15.27C357.2,15.27,357.2,15.27,357.2,15.27
	c0-1.04,0.01-2.08,0-3.12c0-0.38,0.05-0.75-0.39-1.02c-2.02-1.25-5.22-0.25-6.02,1.95c-0.43,1.2-0.41,2.45-0.01,3.64
	c0.68,1.99,2.96,3.05,5.77,2.35c1.52-0.38,0.3-1.95,0.64-2.91C357.28,15.9,357.2,15.57,357.2,15.27z"/>
<path class="st6" d="M382.44,19.08c-0.95-1.52-1.29-2.96-1.22-4.53c0.13-3.03,1.95-5.36,4.86-6.18c1.68-0.47,3.38-0.36,4.98,0.15
	c2.31,0.74,3.28,2.64,3.4,4.92c0.12,2.42,0.03,4.85,0.06,7.28c0.01,0.74-0.34,0.94-1,0.94c-6.24,0-12.48,0-18.72,0.01
	c-0.73,0-0.92-0.36-0.92-1.02c0.01-5.94,0-11.88,0.01-17.83c0-1.62,1.28-0.75,1.99-0.92c0.85-0.2,1.22,0.16,1.21,1.11
	c-0.04,4.9,0.02,9.81-0.05,14.71c-0.02,1.11,0.24,1.49,1.38,1.39C379.66,19,380.9,19.08,382.44,19.08z M391.4,16.05
	c-0.03-0.98,0.08-2.11-0.28-3.22c-0.4-1.25-1.21-1.98-2.54-2.12c-2.28-0.24-3.88,1.06-4.15,3.39c-0.32,2.78,0.94,4.64,3.38,4.97
	C391.27,19.54,391.39,19.45,391.4,16.05z"/>
<path class="st5" d="M273.99,68.14c-1.62-3.01-1.76-5.85,0.31-8.46c2.03-2.56,4.89-2.82,7.83-2.15c2.04,0.47,3.31,1.88,3.68,4
	c0.49,2.8,0.16,5.63,0.25,8.44c0.03,1.03-0.78,0.69-1.28,0.69c-5.29,0.02-10.59,0.02-15.88,0.01c-3.31,0-3.31-0.01-3.31-3.26
	c0-5,0.03-9.99-0.02-14.99c-0.01-1.03,0.23-1.46,1.3-1.29c0.86,0.13,1.95-0.45,1.9,1.33c-0.13,4.8,0,9.6-0.05,14.4
	c-0.01,1.04,0.26,1.37,1.31,1.3C271.3,68.07,272.58,68.14,273.99,68.14z M282.85,65.38c0-1.01,0.07-1.81-0.01-2.6
	c-0.19-1.88-1.19-2.88-2.88-2.99c-1.83-0.12-3.05,0.65-3.71,2.32c-0.69,1.75-0.24,4.04,1.04,5.07c1.58,1.27,3.54,1.22,5.25,0.81
	C283.38,67.79,282.73,66.14,282.85,65.38z"/>
<path class="st6" d="M474.19,16.3c0,1.68-0.06,3.37,0.01,5.05c0.19,4.13-2.25,6.55-6.15,7.2c-1.81,0.3-3.65,0.1-5.48,0
	c-1.53-0.08-1.1-1.15-1.09-2.04c0.02-1.18,0.79-0.66,1.36-0.6c1.91,0.19,3.82,0.58,5.72-0.12c1.43-0.53,2.26-1.51,2.44-3.05
	c0.09-0.76-0.12-1.1-0.93-1.1c-1.14,0-2.28-0.03-3.41-0.15c-3.44-0.36-5.33-2.48-5.47-6.03c-0.14-3.61,1.87-6.44,5.02-7.07
	c2.39-0.48,4.72-0.17,7.04,0.44c0.68,0.18,0.96,0.51,0.94,1.24C474.16,12.14,474.19,14.22,474.19,16.3z M471.07,15.09
	c-0.01,0-0.02,0-0.03,0c0-0.84-0.08-1.69,0.02-2.52c0.16-1.29-0.56-1.69-1.61-1.77c-1.6-0.13-3.2-0.23-4.27,1.35
	c-1.03,1.53-1.05,3.17-0.41,4.81c0.69,1.78,3.15,2.82,5.63,2.12c1.49-0.42,0.35-1.96,0.65-2.94
	C471.15,15.81,471.07,15.44,471.07,15.09z"/>
<path class="st5" d="M368.16,65.59c0,1.68,0,3.36,0,5.04c0,3.68-1.81,5.96-5.38,6.71c-2.16,0.46-4.33,0.38-6.48,0
	c-1.38-0.25-0.51-1.35-0.59-2.04c-0.09-0.83,0.6-0.55,1.05-0.47c1.71,0.31,3.44,0.44,5.16,0.15c1.85-0.31,2.97-1.48,3.22-3.18
	c0.12-0.81-0.05-1.17-0.97-1.14c-1.23,0.03-2.48,0-3.7-0.17c-3.21-0.45-4.96-2.64-5.13-5.88c-0.2-3.83,2.14-6.61,5.11-7.13
	c2.26-0.4,4.52-0.22,6.75,0.42c0.72,0.21,1.01,0.52,0.98,1.32C368.12,61.34,368.16,63.47,368.16,65.59z M365.18,64.16
	c0-1.04,0.01-2.08,0-3.12c0-0.33,0.03-0.65-0.35-0.9c-1.99-1.26-5.38-0.13-6.12,2.08c-1.09,3.24,0.67,5.8,4.08,5.94
	c2.4,0.1,2.4,0.1,2.4-2.22C365.18,65.35,365.18,64.75,365.18,64.16z"/>
<path class="st5" d="M235.32,57.42c-0.9,1.98-1.11,3.83-0.97,5.73c0.2,2.67,1.47,4.13,4.1,4.7c0.87,0.19,1.75,0.29,2.65,0.28
	c4.65-0.01,9.3-0.04,13.96,0.02c1.11,0.01,1.53-0.2,1.49-1.42c-0.1-2.67,0.03-5.35-0.06-8.02c-0.05-1.43,0.84-1.13,1.65-1.15
	c0.8-0.01,1.54-0.18,1.51,1.13c-0.09,3.61-0.05,7.22-0.02,10.84c0.01,0.79-0.16,1.16-1.05,1.15c-6.58-0.1-13.16,0.18-19.74-0.16
	c-3.94-0.2-6.66-2.18-7.38-5.29c-0.47-2-0.4-4.01,0.08-6.03c0.23-0.97,0.66-1.46,1.68-1.48C233.84,57.72,234.46,57.56,235.32,57.42z
	"/>
<path class="st5" d="M552.14,66.48c-0.16,1.24,0.63,3.05-0.31,3.95c-0.86,0.84-2.64,0.2-4.01,0.23c-1.08,0.03-2.17-0.02-3.25-0.12
	c-3.67-0.34-5.44-2.28-5.68-6.13c-0.2-3.31,1.91-6.28,4.98-6.96c1.47-0.32,2.97-0.29,4.41,0.09c1.99,0.52,3.18,1.88,3.61,3.9
	C552.22,63.05,552.09,64.68,552.14,66.48z M549.09,65.3c-0.06-0.93-0.05-1.88-0.19-2.8c-0.26-1.64-1.24-2.58-2.68-2.7
	c-2.31-0.19-3.96,1.17-4.15,3.43c-0.25,2.94,1.12,4.69,3.83,4.91C548.99,68.39,548.99,68.39,549.09,65.3z"/>
<path class="st6" d="M243.64,16.95c0,1.14-0.05,2.28,0.02,3.42c0.05,0.91-0.16,1.36-1.21,1.3c-2.08-0.11-4.16-0.02-6.23-0.17
	c-3.9-0.28-5.85-2.53-5.81-6.58c0.03-3.65,2.51-6.5,5.95-6.76c0.98-0.07,1.97-0.05,2.95,0.16c2.65,0.55,4.14,2.19,4.29,4.91
	c0.07,1.23,0.01,2.48,0.01,3.71C243.61,16.95,243.62,16.95,243.64,16.95z M240.63,16.12c-0.07-0.83,0.08-1.86-0.2-2.89
	c-0.35-1.28-0.93-2.27-2.37-2.49c-1.6-0.25-2.98,0.15-3.87,1.56c-1.01,1.6-0.95,3.33-0.08,4.94c0.74,1.38,2.11,1.82,3.63,1.85
	C240.63,19.15,240.63,19.16,240.63,16.12z"/>
<path class="st5" d="M360.65,188.5c-2.64-0.45-5.26-0.91-7.88-1.33c-0.64-0.1-0.94-0.28-0.93-1.01c0.03-4.06,0.03-8.12,0-12.18
	c-0.01-0.74,0.28-0.88,0.95-0.92c3.73-0.19,3.7-0.21,4.38,3.43c0.67,3.6,1.72,7.1,3.06,10.51
	C360.4,187.45,360.72,187.86,360.65,188.5z"/>
<path class="st6" d="M250.83,16.17c0-2.28,0.04-4.56-0.02-6.83c-0.03-1.2,0.8-0.95,1.41-0.89c0.66,0.06,1.8-0.56,1.77,0.84
	c-0.11,4.85,0.38,9.71-0.26,14.53c-0.41,3.12-2.42,4.75-5.58,4.83c-0.64,0.02-1.29-0.05-1.93,0c-1.21,0.09-1.67-0.33-1.49-1.62
	c0.13-0.89,0.26-1.13,1.26-0.93c3.22,0.64,4.66-0.54,4.77-3.84c0.07-2.03,0.01-4.06,0.01-6.09
	C250.8,16.17,250.82,16.17,250.83,16.17z"/>
<path class="st6" d="M585.48,21.64c-1.63,0-3.26-0.05-4.89,0.02c-1.05,0.04-1.05-0.55-1.05-1.31c0-0.79,0.08-1.31,1.09-1.28
	c2.12,0.06,4.25-0.04,6.37,0.04c1.05,0.04,1.26-0.34,1.14-1.29c-0.43-3.5-2.37-5.85-5.62-6.94c-1.65-0.55-0.69-1.41-0.6-2.17
	c0.14-1.18,0.94-0.71,1.54-0.49c5.97,2.12,7.93,6.04,7.92,12.57c0,0.77-0.37,0.88-1.01,0.87C588.74,21.63,587.11,21.65,585.48,21.64
	C585.48,21.65,585.48,21.64,585.48,21.64z"/>
<path class="st6" d="M270.27,21.66c-1.58,0-3.17-0.03-4.75,0.01c-0.84,0.03-1.17-0.27-1.08-1.11c0.07-0.72-0.16-1.52,1.06-1.48
	c2.13,0.06,4.26-0.04,6.38,0.03c1.12,0.04,1.31-0.39,1.18-1.39c-0.45-3.45-2.4-5.77-5.59-6.82c-1.79-0.59-0.71-1.49-0.59-2.26
	c0.18-1.22,0.97-0.54,1.55-0.35c6.3,2.07,7.94,6.7,7.86,12.58c-0.01,0.73-0.43,0.78-0.97,0.78c-1.68,0-3.36,0-5.05,0
	C270.27,21.65,270.27,21.66,270.27,21.66z"/>
<path class="st5" d="M578.87,70.68c-1.58,0-3.17-0.07-4.74,0.02c-1.12,0.06-1.02-0.59-1.01-1.31c0.01-0.72-0.07-1.33,1.03-1.28
	c2.07,0.09,4.16-0.07,6.22,0.06c1.28,0.08,1.34-0.47,1.2-1.45c-0.46-3.38-2.33-5.65-5.52-6.67c-1.54-0.49-0.87-1.3-0.69-2.14
	c0.25-1.22,1.02-0.75,1.69-0.51c6.14,2.23,7.83,6.36,7.68,12.54c-0.02,0.74-0.44,0.75-0.97,0.74
	C582.13,70.67,580.5,70.68,578.87,70.68z"/>
<path class="st5" d="M562.58,65.3c0,2.13,0.05,4.26-0.01,6.39c-0.13,4.5-4.36,7.34-8.63,5.84c-1.16-0.41-0.39-1.22-0.42-1.86
	c-0.03-0.71,0.37-0.78,0.97-0.63c0.52,0.13,1.07,0.21,1.61,0.22c1.86,0.03,2.88-0.78,3.21-2.61c0.17-0.92,0.23-1.87,0.24-2.8
	c0.02-3.47,0.02-6.94-0.01-10.4c-0.01-1.07-0.2-1.93,1.49-1.95c1.76-0.01,1.58,0.91,1.56,2.01
	C562.56,61.44,562.58,63.37,562.58,65.3z"/>
<path class="st6" d="M570.28,11.56c0-2.82,0.04-5.64-0.02-8.46c-0.02-0.99,0.32-1.39,1.27-1.22c0.79,0.14,1.97-0.52,1.96,1.17
	c-0.05,5.79-0.06,11.58,0,17.37c0.02,1.5-0.91,1.17-1.76,1.24c-1,0.08-1.53-0.12-1.49-1.34C570.34,17.4,570.28,14.48,570.28,11.56z"
	/>
<path class="st5" d="M591.37,60.89c0,2.87-0.07,5.74,0.03,8.61c0.04,1.24-0.58,1.29-1.44,1.17c-0.75-0.1-1.82,0.51-1.8-1.12
	c0.07-5.74,0.08-11.48,0-17.22c-0.02-1.43,0.79-1.18,1.6-1.17c0.77,0.01,1.69-0.34,1.65,1.12C591.3,55.14,591.37,58.02,591.37,60.89
	z"/>
<path class="st6" d="M258.1,11.73c0-2.87,0.07-5.74-0.03-8.6c-0.05-1.31,0.63-1.3,1.55-1.26c0.84,0.03,1.63-0.18,1.61,1.2
	c-0.07,5.73-0.08,11.47,0.01,17.2c0.03,1.72-1.07,1.21-1.96,1.33c-1.06,0.15-1.22-0.37-1.21-1.28c0.04-2.87,0.02-5.73,0.02-8.6
	C258.09,11.73,258.1,11.73,258.1,11.73z"/>
<path class="st8" d="M481.42,11.82c0,2.82-0.09,5.64,0.04,8.45c0.06,1.4-0.63,1.34-1.59,1.34c-0.93,0-1.58,0.01-1.56-1.28
	c0.07-5.68,0.09-11.36,0-17.05c-0.02-1.49,0.72-1.37,1.72-1.42c1.06-0.05,1.47,0.18,1.43,1.36C481.35,6.09,481.41,8.95,481.42,11.82
	z"/>
<path class="st4" d="M282.85,11.82c0,2.87-0.04,5.74,0.02,8.61c0.02,1.07-0.44,1.28-1.33,1.15c-0.78-0.11-1.83,0.43-1.81-1.15
	c0.06-5.79,0.06-11.58,0-17.37c-0.02-1.58,1.03-1.06,1.81-1.16c0.88-0.11,1.34,0.09,1.32,1.16c-0.07,2.92-0.02,5.84-0.02,8.76
	C282.84,11.82,282.85,11.82,282.85,11.82z"/>
<path class="st3" d="M471.56,60.87c0-2.87,0.07-5.74-0.03-8.6c-0.05-1.31,0.71-1.14,1.49-1.11c0.75,0.04,1.66-0.38,1.64,1.1
	c-0.08,5.79-0.07,11.57-0.01,17.36c0.02,1.56-1.02,0.96-1.71,1.02c-0.7,0.07-1.46,0.26-1.41-1.02
	C471.64,66.71,471.57,63.79,471.56,60.87C471.56,60.87,471.56,60.87,471.56,60.87z"/>
<path class="st3" d="M569.84,60.86c0,2.87-0.08,5.75,0.03,8.61c0.05,1.42-0.78,1.18-1.6,1.18c-0.82,0-1.6,0.23-1.58-1.18
	c0.09-5.74,0.08-11.49,0-17.23c-0.02-1.35,0.75-1.11,1.5-1.09c0.74,0.03,1.72-0.41,1.67,1.08
	C569.78,55.12,569.84,57.99,569.84,60.86z"/>
<path class="st5" d="M469.48,100.55c-0.7-0.5-1.48-0.62-2.34-0.61c-5.84,0.03-11.68,0.04-17.52-0.01c-1.15-0.01-1.52,0.3-1.52,1.49
	c0.03,28.76,0.03,57.52,0.01,86.28c0,1.07,0.24,1.58,1.4,1.45c0.68-0.07,1.38,0.01,2.08,0.02c-0.96,0.46-2.04,0.26-3.04,0.53
	c-0.57,0.15-0.81-0.12-0.78-0.71c0.03-0.54,0-1.09,0-1.63c0-28.73,0.01-57.46-0.04-86.19c0-1.37,0.38-1.6,1.64-1.59
	c6.34,0.06,12.68,0.03,19.02,0.02C469.05,99.6,469.77,99.49,469.48,100.55z"/>
<path class="st5" d="M545.56,55.12c-0.79,0-1.58,0-2.37,0c-0.47,0-1.06,0.14-0.99-0.68c0.05-0.54-0.24-1.29,0.78-1.16
	c0.35,0.04,0.42-0.04,0.41-0.47c-0.04-2.58,2.06-4.07,4.67-3.43c0.45,0.11,0.6,0.28,0.52,0.68c-0.09,0.44,0.07,1.06-0.64,1.15
	c-0.39,0.05-0.79,0.01-1.18,0.02c-0.6,0.01-1.09,0.19-1.15,0.88c-0.06,0.71,0.48,0.95,1,1.08c0.47,0.12,0.98,0.11,1.47,0.09
	c0.69-0.03,1.08,0.08,1.08,0.94c0,0.88-0.43,0.94-1.1,0.92C547.24,55.09,546.4,55.12,545.56,55.12z"/>
<path class="st5" d="M415.52,55.12c-0.79,0-1.58,0.03-2.37-0.01c-0.37-0.02-1.03,0.27-0.98-0.49c0.03-0.51-0.46-1.42,0.74-1.34
	c0.59,0.04,0.39-0.4,0.4-0.71c0.12-2.43,2.53-4,4.83-3.19c0.49,0.17,0.45,0.47,0.35,0.8c-0.12,0.37,0.17,0.97-0.52,1.04
	c-0.24,0.02-0.49,0.01-0.74,0c-0.77-0.03-1.68-0.02-1.65,0.99c0.02,0.91,0.93,1,1.68,1.09c0.79,0.09,2.03-0.53,1.82,1.18
	c-0.06,0.53-0.26,0.67-0.73,0.66C417.39,55.11,416.46,55.12,415.52,55.12z"/>
<path class="st5" d="M399.68,73.04c1.04,0.06,1.58,0.69,1.59,1.7c0.01,1.02-0.56,1.7-1.61,1.72c-1.11,0.01-1.74-0.68-1.71-1.76
	C397.98,73.69,398.6,73.1,399.68,73.04z"/>
<path class="st5" d="M244.45,52.55c1.03,0.06,1.65,0.68,1.65,1.68c0.01,0.98-0.58,1.69-1.64,1.72c-1.09,0.04-1.64-0.7-1.67-1.67
	C242.76,53.28,243.36,52.64,244.45,52.55z"/>
<path class="st6" d="M517.8,25.68c-0.07,0.98-0.42,1.71-1.55,1.77c-1.21,0.06-1.7-0.69-1.73-1.73c-0.04-1.03,0.6-1.7,1.62-1.71
	C517.15,24,517.75,24.62,517.8,25.68z"/>
<path class="st6" d="M367.28,4.56c-0.13,0.99-0.67,1.61-1.75,1.57c-1.07-0.03-1.66-0.67-1.61-1.71c0.05-1.03,0.72-1.69,1.74-1.65
	C366.66,2.81,367.25,3.46,367.28,4.56z"/>
<path class="st6" d="M299.11,25.77c-0.15,0.96-0.52,1.69-1.66,1.66c-1.19-0.02-1.65-0.71-1.63-1.8c0.02-1.09,0.7-1.65,1.69-1.62
	C298.54,24.05,299.06,24.75,299.11,25.77z"/>
<path class="st6" d="M497.79,25.8c-0.1,1.09-0.64,1.71-1.69,1.7c-1.11,0-1.76-0.61-1.73-1.73c0.03-1.07,0.76-1.59,1.75-1.58
	C497.13,24.2,497.74,24.79,497.79,25.8z"/>
<path class="st6" d="M522.17,25.8c-0.13,0.9-0.5,1.61-1.64,1.62c-1.21,0.02-1.68-0.65-1.68-1.75c-0.01-0.99,0.54-1.62,1.51-1.64
	C521.41,24.02,522.1,24.58,522.17,25.8z"/>
<path class="st5" d="M403.87,73.07c1.04,0.07,1.69,0.6,1.73,1.65c0.04,1.06-0.56,1.69-1.61,1.74c-1.08,0.05-1.64-0.56-1.7-1.63
	C402.24,73.73,402.85,73.21,403.87,73.07z"/>
<path class="st6" d="M497.78,30.29c-0.07,1.01-0.72,1.56-1.71,1.56c-1-0.01-1.69-0.55-1.69-1.63c-0.01-1.15,0.64-1.68,1.77-1.65
	C497.23,28.6,497.72,29.19,497.78,30.29z"/>
<path class="st6" d="M371.55,4.54c-0.03,1.1-0.65,1.61-1.7,1.59c-0.99-0.02-1.54-0.62-1.62-1.58c-0.08-0.97,0.82-1.91,1.73-1.8
	C370.98,2.88,371.57,3.46,371.55,4.54z"/>
<path class="st6" d="M301.8,27.45c-1.08-0.08-1.7-0.65-1.71-1.68c-0.01-1.01,0.51-1.67,1.61-1.68c1.15-0.01,1.74,0.6,1.73,1.72
	C303.42,26.86,302.78,27.37,301.8,27.45z"/>
<path class="st5" d="M247.1,54.13c0.01-0.96,0.59-1.56,1.62-1.58c1.05-0.02,1.67,0.62,1.68,1.64c0.01,1.02-0.57,1.7-1.63,1.69
	C247.77,55.88,247.12,55.35,247.1,54.13z"/>
<path class="st8" d="M134.8,20.49c0.02-0.28-0.03-0.71,0.37-0.65c0.46,0.07,0.74,0.46,0.79,0.95c0.03,0.31-0.05,0.64-0.44,0.63
	C134.96,21.4,134.81,20.98,134.8,20.49z"/>
<path class="st8" d="M137.64,20.13c-0.14,0.3-0.34,0.6-0.71,0.61c-0.31,0.01-0.33-0.28-0.32-0.53c0.02-0.36,0.25-0.5,0.57-0.49
	C137.44,19.72,137.66,19.79,137.64,20.13z"/>
<path class="st8" d="M210.06,2.59c0-0.64-0.03-1.29-0.05-1.93c-69.22,0-138.43,0-207.65-0.03C1.24,0.64,0.99,0.89,0.99,2
	c0.03,69.22,0.03,138.43,0.03,207.65c0.64,0.02,1.29,0.05,1.93,0.05c68.45,0,136.9,0,205.35,0.03c1.44,0,1.79-0.35,1.79-1.79
	C210.06,139.5,210.06,71.05,210.06,2.59z M184.79,33.54c0.41-0.69,1.05-0.52,1.66-0.25c0.05,0.19,0.1,0.38,0.15,0.56
	c-0.01,0.2-0.01,0.4-0.02,0.59c-0.06,0.08-0.09,0.17-0.08,0.27c-0.52,0.38-1.07,0.53-1.59,0.05
	C184.56,34.43,184.57,33.9,184.79,33.54z M181.58,32.73c0.08,0.01,0.14-0.02,0.19-0.09c0.3-0.01,0.6-0.02,0.89-0.02
	c0.08,0.05,0.17,0.08,0.26,0.06c0.46,0.59,0.72,1.2,0.06,1.8c-0.41,0.37-0.88,0.39-1.32,0.04
	C180.96,33.96,181.14,33.35,181.58,32.73z M182.65,39.13c-0.44,0.2-0.84,0.09-1.19-0.26c-0.43-0.42-0.2-0.9-0.16-1.37
	c0.08,0,0.14-0.03,0.17-0.1c0.11-0.08,0.22-0.16,0.34-0.24l0,0.02c0.66,0.01,1.3,0.05,1.42,0.89
	C183.3,38.55,183.09,38.93,182.65,39.13z M179.9,40.48c0.19,0.6,0.19,1.18-0.26,1.68c-0.37,0-0.74,0-1.1,0
	c-0.62-1.54-0.36-1.86,1.34-1.68C179.87,40.49,179.9,40.48,179.9,40.48z M178.12,35.21c0.23-0.37,0.62-0.49,1.03-0.36
	c0.55,0.18,0.78,0.61,0.65,1.15c-0.06,0.27-0.29,0.5-0.45,0.74c0,0-0.02,0.02-0.02,0.02c-0.33-0.08-0.71-0.08-0.97-0.26
	C177.9,36.19,177.81,35.69,178.12,35.21z M176.42,37.14c0.72,0.2,0.69,0.84,0.73,1.42c-0.07,0.17-0.14,0.34-0.21,0.52
	c-0.55,0.2-1.11,0.19-1.68,0.08c0,0,0,0,0,0.01c0,0-0.01-0.01-0.01-0.01c0,0,0,0,0,0c-0.26-0.57-0.58-1.15-0.05-1.75
	C175.54,37.04,175.99,37.03,176.42,37.14z M174.34,32.62c0.07,0.06,0.16,0.08,0.25,0.08c0.31,0.56,0.58,1.15,0.11,1.74
	c-0.49,0.62-1.12,0.34-1.72,0.19C172.42,33.04,172.64,32.73,174.34,32.62z M173.42,43.06c-0.09,0.74-0.52,1.18-1.25,1.17
	c-0.78-0.02-1.29-0.41-1.24-1.28c0.05-0.75,0.5-1.22,1.21-1.21C172.91,41.73,173.35,42.25,173.42,43.06z M170.99,38.93
	c0.6-0.04,0.74,0.34,0.8,0.84c0,0.53-0.34,0.76-0.84,0.74c-0.44-0.02-0.73-0.27-0.74-0.74C170.19,39.25,170.45,38.97,170.99,38.93z
	 M169.81,36.9l-0.01,0.02c0.08,0.66,0.36,1.38-0.37,1.85c-0.66,0.42-1.3,0.15-1.89-0.24c0-0.52,0-1.03,0-1.55
	C168.28,36.44,169.04,36.39,169.81,36.9z M163.38,42.83c0.23-0.2,0.46-0.4,0.68-0.61c0.82-0.11,1.57,0,2.23,0.55
	c0.3,0.78,0.26,1.55-0.07,2.31l-0.02,0c-0.75,0.32-1.52,0.72-2.31,0.14c-0.86-0.63-0.68-1.51-0.5-2.38
	C163.4,42.85,163.38,42.83,163.38,42.83z M156.89,43.45c0.2-0.18,0.4-0.37,0.6-0.55c0.34-0.02,0.7-0.11,1.02-0.05
	c0.75,0.15,1.02,0.71,0.99,1.43c-0.03,0.67-0.35,1.12-1.06,1.2c-0.71,0.08-1.3-0.16-1.53-0.86
	C156.8,44.26,156.89,43.84,156.89,43.45z M153.05,48.24c0.77,0.01,1.2,0.57,1.34,1.33c-0.11,0.79-0.52,1.26-1.34,1.28
	c-0.81,0.02-1.3-0.35-1.33-1.21C151.69,48.71,152.22,48.23,153.05,48.24z M151.56,61.79c-1,0.62-1.76,0.15-2.44-0.61
	c-0.03-0.19-0.06-0.38-0.09-0.57c0.52-1.71,0.97-1.92,2.92-1.35l-0.02,0.07C152.3,60.23,152.62,61.13,151.56,61.79z M151.96,67.39
	c-0.68,0.58-1.43,0.53-2.21,0.26c-0.24-0.91-0.61-1.91,0.73-2.26C151.56,65.11,152.08,65.86,151.96,67.39z M148.51,43.84
	c0.11-0.14,0.21-0.29,0.32-0.43l0.02,0.03c0.47-0.09,0.88-0.45,1.4-0.28c0.86,0.28,1.38,0.88,1.08,1.76
	c-0.44,1.3-1.43,1.25-2.49,0.77c0,0-0.01,0.03-0.02,0.03c-0.11-0.14-0.21-0.29-0.32-0.43C148.51,44.8,148.51,44.32,148.51,43.84z
	 M148.19,78.18c-0.05,0.28-0.24,0.53-0.36,0.8c0,0,0,0,0,0c-0.25,0.02-0.49,0.06-0.74,0.06c-0.88,0-1.27-0.53-1.19-1.33
	c0.07-0.67,0.55-1.07,1.24-1C148,76.81,148.33,77.37,148.19,78.18z M128,79.09c-0.62,0.31-1.26,0.27-1.73-0.29
	c-0.41-0.49-0.48-1.04-0.12-1.63c0.41-0.66,1.02-0.74,1.66-0.54c0.34,0.11,0.62,0.44,0.92,0.67c0.01,0.37,0.01,0.74,0.02,1.11
	C128.5,78.65,128.29,78.95,128,79.09z M129.14,93.81c0.63-0.06,1.02,0.27,1.12,0.94c-0.05,0.51-0.26,0.92-0.87,0.95
	c-0.63,0.04-1.08-0.19-1.11-0.88C128.26,94.26,128.57,93.87,129.14,93.81z M126.69,73.38c-0.89,0.02-1.4-0.47-1.38-1.36
	c0.01-0.89,0.54-1.32,1.17-1.33c1.21,0.01,1.54,0.58,1.53,1.44C128.01,73.01,127.47,73.37,126.69,73.38z M124.21,107.67
	c0.28-0.71,0.76-1.09,1.58-1.02c0.55,0.04,0.86,0.42,1.25,0.7c-0.02,0.09,0,0.17,0.06,0.24c-0.04,0.58,0.05,1.19-0.49,1.62
	c-0.57,0.46-1.23,0.45-1.78,0.1C124.29,108.96,123.92,108.4,124.21,107.67z M123.64,89.25c0.02-0.69,0.52-1.01,1.21-0.99
	c0.68,0.02,0.99,0.45,0.99,1.04c0,0.68-0.41,1.07-1.15,1.09C124.02,90.33,123.61,89.9,123.64,89.25z M125.83,101.03
	c-0.94,0-1.47-0.55-1.48-1.46c-0.01-0.88,0.39-1.5,1.39-1.53c1.01-0.03,1.57,0.43,1.66,1.48
	C127.35,100.49,126.82,101.03,125.83,101.03z M127.32,84.89c-0.44,0-0.87,0-1.31,0c-0.28-0.41-0.55-0.82-0.46-1.36
	c0.13-0.71,0.58-1.01,1.27-0.93c1.01,0.12,1.07,0.85,0.99,1.65c0,0,0.03,0.06,0.03,0.06C127.67,84.51,127.49,84.7,127.32,84.89z
	 M129.29,102.87c0.9-0.08,1.93,1.03,1.89,1.93c-0.03,0.93-0.91,1.75-1.88,1.75c-1.05,0-1.92-0.86-1.85-1.89
	C127.53,103.55,128.24,102.97,129.29,102.87z M130.8,89.39c0.03-0.57,0.37-0.88,0.95-0.89c0.65-0.01,1,0.29,1.02,0.9
	c-0.03,0.71-0.36,1.03-1.02,1.02C131.09,90.4,130.77,90.01,130.8,89.39z M132.51,70.77c0.17-0.04,0.34-0.07,0.5-0.11
	c0.3,0,0.6,0.01,0.89,0.01c0.08,0.05,0.17,0.08,0.27,0.06c0.6,0.67,1,1.4,0.29,2.2c-0.51,0.58-1.22,0.68-1.85,0.2
	C131.69,72.42,132.1,71.58,132.51,70.77z M132.52,77.9c0-0.89,0.55-1.35,1.41-1.35c0.89,0,1.37,0.54,1.39,1.39
	c0.02,0.9-0.55,1.3-1.41,1.36C133.05,79.22,132.52,78.79,132.52,77.9z M134.81,60.82c0-1.11,0.66-1.82,1.73-1.83
	c1.07-0.01,1.66,0.73,1.8,1.67c-0.14,1.22-0.71,1.89-1.84,1.85C135.48,62.46,134.82,61.89,134.81,60.82z M138.95,49.63
	c0.03,0.1,0.05,0.19,0.08,0.29c0,0.3,0,0.59,0.01,0.89c-0.27,0.68-0.84,0.82-1.48,0.84c-0.69-0.5-1.22-1.11-0.64-1.95
	C137.5,48.83,138.26,49.13,138.95,49.63z M137.14,40.65c-0.03-0.72,0.35-1.07,0.99-1.15c0.71,0.03,1.14,0.33,1.16,1.06
	c0.02,0.7-0.3,1.12-1.02,1.14C137.59,41.7,137.17,41.38,137.14,40.65z M138.71,64.78c0.94,0,1.44,0.61,1.42,1.53
	c-0.01,0.86-0.53,1.33-1.3,1.44c-0.99-0.02-1.46-0.61-1.5-1.4C137.29,65.5,137.74,64.78,138.71,64.78z M138.77,88.91
	c0.35,0.03,0.5,0.28,0.5,0.62c-0.04,0.34-0.23,0.54-0.58,0.52c-0.34-0.01-0.56-0.19-0.57-0.54
	C138.11,89.08,138.36,88.87,138.77,88.91z M139.01,72.17l0.04-0.03c0.23-0.48,0.37-1.06,1.11-0.95c0.3,0.05,0.56,0.15,0.7,0.46
	c0.28,0.64-0.09,1.02-0.55,1.35c0,0-0.09-0.02-0.09-0.02s-0.07,0.06-0.07,0.06c-0.17-0.01-0.34-0.02-0.51-0.04
	c0,0-0.01,0.02-0.01,0.02C139.42,72.74,139.22,72.45,139.01,72.17z M139.69,77.2c0,0-0.05-0.09-0.05-0.09l0.1,0.04
	c0.29-0.04,0.59-0.15,0.86-0.11c0.48,0.08,0.78,0.37,0.74,0.92c-0.03,0.48-0.32,0.71-0.74,0.77c-0.5,0.07-0.89-0.14-0.98-0.66
	C139.58,77.79,139.66,77.49,139.69,77.2z M140.32,57.06c-0.25-0.02-0.49-0.04-0.74-0.06c0,0,0,0.01,0,0.01
	c-0.19-0.22-0.44-0.41-0.56-0.66c-0.39-0.8-0.51-1.62,0.24-2.3c0.59-0.53,1.29-0.76,2.03-0.33c0.77,0.44,1.07,1.17,0.87,2.01
	C141.94,56.64,141.31,57.13,140.32,57.06z M142.1,46.47c-0.64-0.02-1.15-0.3-1.32-0.97c-0.16-0.62,0-1.19,0.54-1.58
	c0.53-0.38,1.12-0.39,1.66-0.04c0.28,0.18,0.47,0.49,0.71,0.74c0.06,0.65-0.15,1.22-0.56,1.72
	C142.78,46.39,142.44,46.48,142.1,46.47z M143.65,59.49c0.73-0.01,1.01,0.5,1.1,1.17c-0.13,0.63-0.47,1.14-1.16,1.08
	c-0.66-0.06-1.06-0.56-1.02-1.23C142.61,59.91,143.03,59.5,143.65,59.49z M145.59,64.51c1.01,0.08,1.66,0.57,1.72,1.64
	c0.06,1.08-0.51,1.67-1.57,1.72c-1.06,0.05-1.7-0.51-1.74-1.57C143.97,65.26,144.53,64.65,145.59,64.51z M145.61,70.79
	c0.31,0.01,0.63,0.01,0.94,0.02c0.92,1.11,0.88,2.05-0.12,2.29c-0.52,0.13-1.13,0.15-1.41-0.45
	C144.65,71.89,144.9,71.25,145.61,70.79z M146.55,56.09c-0.7-0.03-1.08-0.42-1.1-1.13c-0.03-0.82,0.44-1.16,1.19-1.17
	c0.71,0,1.05,0.43,1.14,1.04C147.69,55.63,147.36,56.12,146.55,56.09z M146.31,38.39c0.91,0.01,1.47,0.62,1.46,1.52
	c-0.01,0.84-0.58,1.33-1.43,1.37c-0.95,0.04-1.42-0.5-1.48-1.3C144.84,38.87,145.41,38.38,146.31,38.39z M144.8,48.53
	c0.63-0.34,1.36-0.3,1.92,0.23c0.5,0.48,0.64,1.09,0.37,1.76c-0.31,0.74-0.92,1.01-1.66,0.93c-0.38-0.04-0.74-0.23-1.11-0.35
	c0,0,0,0,0,0c0,0,0,0,0,0c0,0,0,0,0,0C143.94,50.13,143.64,49.15,144.8,48.53z M143.94,35.78c-0.04,0.34-0.19,0.66-0.29,0.99
	c0,0,0.06,0.06,0.06,0.06l-0.06-0.06c-0.32,0.11-0.63,0.28-0.97,0.33c-1.05,0.18-1.92-0.49-1.94-1.49
	c-0.02-1.08,0.59-1.65,1.62-1.71C143.36,33.85,144.06,34.71,143.94,35.78z M141.35,24.94c1.01,0,1.56,0.6,1.54,1.6
	c-0.02,0.93-0.56,1.44-1.52,1.44c-0.96,0-1.52-0.51-1.55-1.43C139.79,25.59,140.32,24.93,141.35,24.94z M139.5,31.68
	c-0.04,1.01-0.74,1.52-1.67,1.5c-0.92-0.02-1.45-0.67-1.44-1.56c0.01-0.97,0.6-1.53,1.61-1.61
	C138.93,30.16,139.54,30.69,139.5,31.68z M137.31,21.68c0.82,0,1.3,0.46,1.31,1.27c0.01,0.84-0.4,1.42-1.32,1.42
	c-0.88,0-1.36-0.46-1.37-0.92C135.92,22.08,136.44,21.67,137.31,21.68z M135.23,46.13c-0.23,0.86-0.89,0.95-1.62,0.9
	c-0.09-0.03-0.18-0.07-0.27-0.1c-0.02-0.04-0.04-0.09-0.07-0.13c-0.36-0.65-0.5-1.3,0.14-1.87c0.4-0.36,0.88-0.47,1.34-0.1
	C135.16,45.15,135.37,45.58,135.23,46.13z M133.86,37.75c-0.62,0.02-1.06-0.31-1.06-0.96c0-0.7,0.42-1.1,1.12-1.09
	c0.64,0.01,0.95,0.42,0.97,1.05C134.89,37.45,134.46,37.74,133.86,37.75z M132.52,28.38c0.2-0.69,0.73-0.9,1.39-0.76
	c0.28,0.06,0.54,0.23,0.8,0.35l0.02,0.01c0,0.29,0.06,0.61-0.02,0.88c-0.23,0.72-0.78,1.04-1.49,0.81
	C132.64,29.47,132.34,29,132.52,28.38z M133.66,54.04c1.05-0.08,1.62,0.6,1.65,1.58c0.04,1-0.56,1.66-1.63,1.71
	c-1.12,0.06-1.68-0.67-1.72-1.62C131.91,54.74,132.46,54.03,133.66,54.04z M133.35,66.34c-0.01,0.89-0.49,1.5-1.44,1.52
	c-0.99,0.02-1.59-0.53-1.62-1.51c-0.03-0.97,0.52-1.54,1.53-1.6C132.83,64.8,133.36,65.37,133.35,66.34z M131.16,51.59
	c0,0,0,0.02,0,0.02c-0.16,0.12-0.31,0.24-0.48,0.35c-0.74,0.5-1.36,0.25-1.73-0.45c-0.37-0.71,0-1.3,0.71-1.5
	c0.8-0.23,1.33,0.17,1.49,1C131.18,51.19,131.16,51.39,131.16,51.59z M131.06,41.91c-0.02,0.75-0.46,1.36-1.3,1.33
	c-0.78-0.03-1.33-0.5-1.33-1.31c0-0.8,0.48-1.27,1.07-1.29C130.59,40.64,131.09,41.11,131.06,41.91z M128.99,32.02
	c0.93-0.02,1.34,0.49,1.39,1.39c-0.05,0.8-0.52,1.29-1.31,1.3c-0.88,0.02-1.39-0.53-1.38-1.4C127.69,32.5,128.15,32.03,128.99,32.02
	z M129.32,59.18c1.02-0.02,1.96,0.89,1.86,1.88c-0.1,1.11-0.75,1.78-1.74,1.91c-1.25,0-2.09-0.89-2.05-2.03
	C127.43,59.71,128.17,59.2,129.32,59.18z M127.33,56.6c-0.05,0.33-0.23,0.64-0.35,0.96c0,0,0.06,0.09,0.06,0.09l-0.07-0.08
	c-0.28,0.09-0.55,0.2-0.84,0.26c-0.82,0.15-1.44-0.13-1.81-0.89c-0.31-0.64-0.23-1.24,0.26-1.76c0.58-0.6,1.29-0.69,2.01-0.33
	C127.33,55.19,127.43,55.88,127.33,56.6z M127.07,47.08c-0.03,0.88-0.55,1.34-1.39,1.37c-0.93,0.03-1.53-0.48-1.51-1.43
	c0.02-0.84,0.53-1.37,1.41-1.39C126.52,45.6,127.05,46.08,127.07,47.08z M124.88,37.15c0.86-0.02,1.35,0.48,1.35,1.34
	c-0.04,0.94-0.48,1.4-1.4,1.35c-0.9-0.05-1.32-0.58-1.3-1.44C123.54,37.56,124.13,37.16,124.88,37.15z M124.65,65.1
	c0.9-0.08,1.33,0.48,1.48,1.35c-0.08,0.82-0.5,1.33-1.4,1.35c-0.84,0.02-1.29-0.43-1.36-1.23C123.29,65.66,123.8,65.17,124.65,65.1z
	 M96.71,131.32c-0.23,0.2-0.46,0.4-0.7,0.6c-0.15,0.03-0.3,0.05-0.45,0.08c-0.39-0.02-0.78-0.04-1.17-0.06l0,0
	c-0.85-0.61-1.22-1.42-0.87-2.44c0.33-0.95,1.15-1.13,2.03-1.13c0.16,0.04,0.32,0.07,0.48,0.11c0.21,0.19,0.42,0.38,0.63,0.56
	c0,0,0.01,0,0.01,0c0.22,0.77,0.23,1.53,0.01,2.3C96.69,131.33,96.71,131.32,96.71,131.32z M72.34,129.85
	C72.34,129.85,72.33,129.85,72.34,129.85C72.33,129.85,72.33,129.85,72.34,129.85c-0.59,0.33-1.18,0.53-1.7-0.1
	c-0.32-0.39-0.33-0.85-0.02-1.21c0.52-0.61,1.13-0.38,1.73-0.09c0,0.09,0.02,0.17,0.07,0.24C72.39,129.08,72.36,129.46,72.34,129.85
	C72.33,129.85,72.34,129.85,72.34,129.85z M61.07,130.17L61,130.11c-0.23,0.09-0.45,0.21-0.68,0.25c-0.74,0.13-1.28-0.12-1.37-0.92
	c-0.07-0.67,0.22-1.16,0.96-1.21c0.78-0.05,1.19,0.36,1.19,1.14c0,0.24-0.07,0.48-0.1,0.72C61,130.11,61.07,130.17,61.07,130.17z
	 M34,108.44c0.14-0.26,0.24-0.53,0.36-0.8l0,0c0.33-0.11,0.64-0.24,0.98-0.32c1.05-0.23,1.88,0.11,2.33,1.09
	c0.45,0.96,0.25,1.87-0.6,2.51c-0.78,0.59-1.71,0.61-2.47,0.01C33.82,110.3,33.46,109.45,34,108.44z M33.47,105.87
	c-1.15-0.01-2.05-0.93-2.03-2.1c0.02-1.06,0.94-1.97,2.01-1.99c1.12-0.03,2.06,0.92,2.06,2.07
	C35.51,105.08,34.71,105.88,33.47,105.87z M38.71,112.12c1.04,0.05,1.62,0.64,1.59,1.74c-0.03,1.2-0.76,1.72-1.82,1.66
	c-1.04-0.06-1.57-0.75-1.53-1.97C37.05,112.63,37.67,112.07,38.71,112.12z M41.22,104.65c1.07-0.28,1.95,0,2.35,1.16
	c0.09,0.28,0.14,0.57,0.21,0.85c-0.19,0.4-0.38,0.8-0.57,1.2c-0.36,0.14-0.72,0.35-1.09,0.39c-1.03,0.13-1.9-0.16-2.14-1.29
	C39.75,105.89,40.04,104.96,41.22,104.65z M40.31,137.33c0.18-0.03,0.36-0.05,0.55-0.08c0.79,0.01,1.49,0.2,1.73,1.06
	c0.18,0.64,0.15,1.27-0.42,1.76c-0.5,0.43-1.06,0.5-1.66,0.28C39.32,139.92,39.24,138.6,40.31,137.33z M42.36,131.97
	c0.03-0.86,0.54-1.24,1.36-1.19c0.78,0.05,1.08,0.58,1.2,1.21c-0.17,0.84-0.58,1.33-1.43,1.26
	C42.72,133.18,42.33,132.72,42.36,131.97z M44.5,113.27c-0.99-0.11-1.57-0.66-1.54-1.63c0.02-1.02,0.6-1.68,1.68-1.6
	c0.94,0.07,1.56,0.59,1.55,1.61C46.19,112.74,45.49,113.16,44.5,113.27z M49.78,84.01c-0.08,0.32-0.3,0.6-0.46,0.9
	c0,0-0.03,0-0.03,0c-0.34-0.03-0.71,0.01-1-0.12c-0.65-0.29-0.77-0.87-0.54-1.48c0.2-0.51,0.67-0.75,1.19-0.63
	C49.61,82.84,49.94,83.32,49.78,84.01z M50.76,89.01c0.44,0.64,0.19,1.24-0.45,1.62c-0.91,0.55-1.59-0.03-1.76-1.48
	c0.07-0.05,0.1-0.11,0.09-0.2C49.36,88.35,50.12,88.08,50.76,89.01z M47.7,101.68c1.01-0.07,1.85,0.87,1.82,2.07
	c-0.1,0.93-0.63,1.63-1.76,1.69c-1.16,0.06-1.97-0.81-1.89-1.98C45.94,102.32,46.64,101.76,47.7,101.68z M49.08,117.45
	c-0.19,0.32-0.57,0.52-0.87,0.78c-0.31-0.02-0.61-0.04-0.92-0.06c-0.25-0.23-0.56-0.43-0.75-0.7c-0.49-0.72-0.38-1.46,0.25-2
	c0.61-0.52,1.35-0.65,2.01-0.03C49.44,116.02,49.5,116.74,49.08,117.45z M46.32,123.46c0.72,0.05,1.12,0.53,1.12,1.18
	c-0.1,0.91-0.54,1.36-1.35,1.29c-0.72-0.07-1.12-0.54-1.1-1.28C45.01,123.79,45.54,123.4,46.32,123.46z M45.56,140.58
	c0.04-0.09,0.05-0.18,0.08-0.28c0,0,0,0-0.01,0c0,0,0.01-0.01,0.01-0.01c0,0,0,0,0,0.01c0.09-0.03,0.18-0.06,0.27-0.1
	c0.78-0.38,1.53-0.45,2.07,0.37c0.4,0.59,0.35,1.23-0.14,1.76c-0.49,0.53-1.14,0.61-1.74,0.28
	C45.27,142.14,45.19,141.41,45.56,140.58z M47.28,137.41c-0.34-0.02-0.68-0.11-1.01-0.17c0,0-0.01,0-0.01,0
	c-0.19-0.34-0.43-0.66-0.54-1.02c-0.25-0.8,0.02-1.46,0.72-1.9c0.65-0.41,1.36-0.38,1.92,0.1c0.53,0.45,0.84,1.06,0.57,1.83
	C48.66,137.05,48.13,137.46,47.28,137.41z M48.32,128.47c-0.04-0.67,0.37-0.96,1.06-0.98c0.53,0.07,0.99,0.28,0.99,0.97
	c0.01,0.74-0.39,1.07-1.09,1.07C48.6,129.53,48.36,129.03,48.32,128.47z M49.2,108.7c0-0.84,0.5-1.27,1.3-1.27
	c0.9-0.01,1.36,0.57,1.33,1.41c-0.03,0.81-0.54,1.22-0.97,1.2C49.6,109.98,49.2,109.51,49.2,108.7z M51.56,120.1
	c0.66,0.04,0.92,0.48,0.94,0.89c-0.01,0.89-0.39,1.2-1.03,1.19c-0.65-0.01-1.03-0.38-1.03-1.02
	C50.43,120.45,50.84,120.05,51.56,120.1z M52.41,113.49c-0.02-0.8,0.56-1.31,1.43-1.35c1-0.05,1.53,0.57,1.52,1.56
	c-0.01,0.95-0.62,1.48-1.5,1.46C53.02,115.13,52.4,114.64,52.41,113.49z M50.88,139.28c0.36-0.91,1.08-0.87,2.01,0.11
	c0.01,0.2,0.02,0.39,0.03,0.59c-0.04,0.05-0.05,0.1-0.03,0.16l-0.04,0.01c-0.45,0.49-0.95,0.91-1.64,0.43
	C50.76,140.26,50.68,139.79,50.88,139.28z M52.55,132.52c0.02-0.61,0.42-1.01,1.05-1.03c0.72-0.03,1.07,0.41,1.12,1.13
	c-0.08,0.64-0.42,1.09-1.14,1.08C52.84,133.69,52.52,133.17,52.55,132.52z M54.49,125.28c0.06-0.65,0.5-0.96,1.07-0.99
	c0.61-0.03,1.02,0.35,1.07,0.97c0.03,0.37-0.11,0.76-0.17,1.14c0,0,0.05,0.1,0.05,0.1l-0.1-0.05c-0.38,0.03-0.79,0.15-1.15,0.07
	C54.66,126.37,54.44,125.88,54.49,125.28z M64.45,115.63c-0.43,0.51-0.96,0.35-1.4-0.1c-0.05-0.23-0.1-0.46-0.15-0.69
	c0.22-0.22,0.44-0.44,0.67-0.65c0.2,0.02,0.4,0.03,0.61,0.05C64.65,114.62,64.87,115.13,64.45,115.63z M64.49,95.05
	c-0.06-0.68,0.36-1.02,0.95-1.08c0.65-0.06,0.97,0.36,1.02,0.82c0.02,0.81-0.27,1.18-0.94,1.22C64.84,96.06,64.54,95.67,64.49,95.05
	z M62.83,121.61c-0.02,0.09,0.01,0.17,0.07,0.24c-0.04,0.57,0.07,1.21-0.71,1.42c-0.41,0.11-0.79,0.02-1.08-0.27
	c-0.3-0.29-0.39-0.72-0.22-1.08C61.37,120.91,62.1,121.16,62.83,121.61z M62.25,102c0.4-0.12,0.81,0.03,1.04,0.38
	c0.38,0.57,0.17,1.11-0.21,1.6c-0.44-0.01-0.87-0.01-1.31-0.02C61.35,103.16,61.03,102.37,62.25,102z M63.34,90.58
	c-0.61,0-1.06-0.28-1.07-0.96c-0.02-0.71,0.33-1.09,1.07-1.11c0.66-0.01,1.02,0.27,1.07,0.95C64.4,90.16,64.07,90.59,63.34,90.58z
	 M63.02,84.92c-0.08-0.01-0.13,0.03-0.16,0.1c-0.58,0.05-1.21,0.28-1.72-0.15c-0.48-0.41-0.67-0.97-0.39-1.6
	c0.27-0.62,0.77-0.94,1.41-0.86c0.7,0.08,1.16,0.51,1.25,1.26C63.48,84.16,63.2,84.52,63.02,84.92z M59.43,118.04
	c-0.04,1.25-0.73,1.81-1.77,1.93c-0.95,0.1-1.92-0.94-1.83-1.92c0.1-1.09,0.75-1.72,1.85-1.7
	C58.81,116.38,59.36,117.06,59.43,118.04z M59.1,110.22c0.19-0.39,0.56-0.54,0.98-0.44c0.57,0.14,0.79,0.55,0.68,1.1
	c-0.06,0.27-0.23,0.52-0.35,0.78c0,0-0.01,0-0.01,0c-0.33-0.05-0.71-0.01-0.98-0.16C58.93,111.21,58.86,110.71,59.1,110.22z
	 M56.51,106.8c-0.58,0.01-0.89-0.36-0.91-0.95c-0.01-0.55,0.32-0.83,0.81-0.88c0.6-0.06,0.88,0.32,1.01,0.83
	C57.38,106.4,57.08,106.79,56.51,106.8z M55.18,87.46c-0.56-0.47-0.4-1.05-0.08-1.6c1.35-0.48,1.84,0.09,1.68,1.41
	C56.29,87.63,55.75,87.93,55.18,87.46z M56.54,142.07c0.66-0.02,0.98,0.33,1.01,0.97c0.05,0.65-0.25,1.04-0.89,1.1
	c-0.74,0.07-1.12-0.37-1.12-1.04C55.54,142.51,55.89,142.09,56.54,142.07z M57.64,135.58c0.31-0.35,0.84-0.36,1.21-0.01
	c0.67,0.62,0.25,1.14-0.21,1.64c0,0-0.01,0.03-0.01,0.03c-0.18,0.01-0.35,0.02-0.53,0.02c-0.02-0.06-0.06-0.09-0.13-0.07
	C57.35,136.76,57.09,136.2,57.64,135.58z M63.07,137.54c1.14-0.03,2.11,0.86,2.13,1.98c0.02,1.15-0.86,2.05-2.02,2.08
	c-1.21,0.03-2.06-0.77-2.09-1.97C61.05,138.44,61.88,137.57,63.07,137.54z M64.78,133.58c-0.49-0.02-0.8-0.32-0.77-0.86
	c0.03-0.44,0.25-0.72,0.72-0.75c0.54-0.03,0.79,0.26,0.84,0.75C65.53,133.24,65.31,133.61,64.78,133.58z M65.49,125.73
	c0.16-0.81,0.78-0.9,1.46-0.85c0,0,0.02-0.02,0.02-0.02c0.2,0.23,0.4,0.46,0.6,0.69c0.01,0.24,0.01,0.47,0.02,0.71
	c-0.41,0.55-0.91,0.9-1.62,0.58C65.48,126.63,65.4,126.19,65.49,125.73z M68.5,101.08c-0.66,0.04-1.01-0.29-0.99-0.95
	c0.01-0.55,0.23-0.91,0.87-0.92c0.66-0.01,1,0.29,1.02,1.06C69.39,100.74,69.07,101.05,68.5,101.08z M67.67,119.65
	c0.01-0.08-0.02-0.14-0.08-0.18c0-0.3,0-0.6-0.01-0.9c0.32-0.31,0.72-0.28,1.12-0.24C69.27,119.49,68.89,119.9,67.67,119.65z
	 M67.07,80.99c-0.12-1.27,0.78-1.39,1.73-1.37c0.05,0.07,0.12,0.09,0.21,0.07c0.68,1.32,0.51,2.2-0.47,2.34
	C67.75,82.14,67.15,81.83,67.07,80.99z M67.86,140.24c1.35-0.01,1.87,0.69,1.86,1.77c-0.01,1.1-0.66,1.79-1.77,1.76
	c-1.09-0.03-1.78-0.74-1.75-1.81C66.23,140.91,66.84,140.22,67.86,140.24z M68.9,136.17c-0.14-0.41-0.08-0.79,0.24-1.08
	c0.32-0.29,0.73-0.37,1.1-0.19c1.07,0.53,0.63,1.25,0.18,1.95c0,0-0.01,0.09-0.01,0.09l-0.06-0.07
	C69.75,136.88,69.14,136.9,68.9,136.17z M71.78,93.18c0,0-0.03,0-0.03,0c-0.52-0.1-1.13-0.06-1.3-0.75
	c-0.09-0.37-0.02-0.73,0.25-0.96c0.56-0.48,1.1-0.19,1.62,0.14c0,0.36,0,0.73,0.01,1.09C72.15,92.86,71.97,93.02,71.78,93.18z
	 M72.86,104.07c0.08,0.43,0.25,0.87-0.15,1.23c-0.27,0.24-0.59,0.36-0.94,0.23c-0.36-0.13-0.53-0.43-0.53-0.8
	c-0.01-0.74,0.54-0.83,1.09-0.91C72.5,103.91,72.68,103.99,72.86,104.07z M70.8,111.96c0.03,0.39-0.16,0.68-0.56,0.74
	c-0.46,0.06-0.77-0.16-0.83-0.63c-0.05-0.45,0.16-0.76,0.63-0.83C70.52,111.24,70.77,111.51,70.8,111.96z M72.41,121.94
	c0.58-0.17,1.24-0.31,1.35,0.5c0.11,0.8-0.58,0.68-1.1,0.68C72.23,122.8,72.37,122.36,72.41,121.94z M96.85,80.05
	c0.58,1.47-0.72,2.97-2.48,2.54c0,0-0.12-0.03-0.12-0.03c-1.22-1.02-1.29-2.17-0.4-3.43l0.03,0C95.06,78.84,96.26,78.57,96.85,80.05
	z M93.93,75.05c-0.01-0.63,0.34-1.14,1.08-1.15c0.74-0.01,1.23,0.31,1.21,0.91c0.04,0.96-0.36,1.32-1.05,1.36
	C94.38,76.23,93.93,75.78,93.93,75.05z M110.41,65.97L110.41,65.97C110.41,65.98,110.41,65.98,110.41,65.97
	c0.2,0.34,0.48,0.65,0.58,1.01c0.26,0.89,0.06,1.69-0.75,2.22c-0.74,0.48-1.5,0.41-2.19-0.17c-0.71-0.59-0.83-1.35-0.52-2.15
	c0.34-0.9,1.09-1.23,2.02-1.12C109.84,65.8,110.12,65.9,110.41,65.97C110.41,65.98,110.41,65.97,110.41,65.97z M113.14,70.44
	c0.29,0.03,0.56,0.15,0.84,0.23c0.19,0.22,0.38,0.43,0.57,0.65c0,0.58-0.01,1.17-0.01,1.75c0,0,0,0,0,0
	c-0.26,0.22-0.5,0.47-0.79,0.64c-0.71,0.4-1.46,0.34-2.06-0.19c-0.58-0.52-0.81-1.22-0.44-2C111.63,70.71,112.27,70.36,113.14,70.44
	z M112.52,62.38c0.02-0.47,0.33-0.7,0.78-0.71c0.54-0.01,0.81,0.28,0.85,0.81c-0.08,0.5-0.34,0.82-0.88,0.8
	C112.73,63.24,112.5,62.89,112.52,62.38z M106.11,84.6l-0.08-0.07c-1.03,0.18-2.04,0.23-2.41-1.03c-0.22-0.73,0.01-1.4,0.67-1.82
	c0.65-0.42,1.33-0.35,1.9,0.2c0.53,0.52,0.79,1.14,0.4,1.87c-0.14,0.26-0.32,0.5-0.48,0.75C106.1,84.49,106.11,84.6,106.11,84.6z
	 M106.72,95.57c0.21-0.37,0.55-0.67,0.84-1c0.42,0,0.83,0,1.25,0.01c0.72,0.44,1.18,1.01,1.06,1.93c-0.09,0.74-0.54,1.11-1.18,1.36
	c-0.71,0.27-1.26,0.02-1.71-0.51C106.53,96.83,106.37,96.2,106.72,95.57z M109.45,89.71c-0.15,0-0.3,0-0.45,0
	c-0.7-0.4-1.38-0.82-1.18-1.79c0.13-0.63,0.49-1.07,1.17-1.13c0.68-0.06,1.25,0.09,1.52,0.84C110.9,88.71,110.3,89.26,109.45,89.71z
	 M108.21,76.23c0.86,0.29,1.22,0.97,1.14,1.84c-0.08,0.87-0.53,1.46-1.47,1.57c-1.04,0.12-1.7-0.3-1.97-1.32
	c-0.05-0.19-0.12-0.37-0.19-0.55c0,0,0.01-0.09,0.01-0.09c0.1-0.17,0.21-0.33,0.29-0.51C106.49,76.22,107.23,75.9,108.21,76.23z
	 M106.85,73.54c-0.38,0.99-1.23,1.2-2.21,1.05c-0.6-0.09-0.87-0.63-1.3-0.93c0,0-0.01,0-0.01,0c-0.29-1.39,0.19-2.38,1.54-2.9
	c0.23,0.01,0.46,0.03,0.68,0.04C106.71,71.37,107.36,72.22,106.85,73.54z M104.6,65.87c-0.41,0.02-0.82,0.03-1.23,0.05
	c-0.38-0.55-0.4-1.11-0.03-1.68C104.77,64,105.08,64.63,104.6,65.87z M104.46,89.44c0.76,0.29,1.03,0.91,0.84,1.66
	c-0.17,0.68-0.62,1.13-1.39,1.01c-0.38-0.06-0.74-0.22-1.1-0.34c0-0.11-0.05-0.19-0.15-0.24c-0.06-0.53-0.27-1.1,0.1-1.57
	C103.19,89.42,103.78,89.18,104.46,89.44z M101.03,96.81c0.34-0.74,1.04-1.02,1.86-0.83c0.33,0.08,0.64,0.22,0.95,0.34
	c0,0,0,0,0-0.01c0,0,0.01,0.01,0.01,0.01c0,0-0.01,0-0.01,0c0.11,0.32,0.26,0.64,0.31,0.97c0.13,0.83-0.24,1.46-0.97,1.81
	c-0.68,0.33-1.34,0.17-1.89-0.38C100.73,98.15,100.74,97.44,101.03,96.81z M100.55,86.03c-0.1,0-0.18,0.05-0.24,0.14
	c-0.98,0.07-1.88,0-2.4-1.03c-0.52-1.03-0.03-1.79,0.62-2.53c0.77-0.2,1.53-0.23,2.28,0.09C101.66,83.89,101.74,85.01,100.55,86.03z
	 M102.82,78.51c-0.25,0.79-0.86,1.17-1.68,1.22c-0.9,0.06-1.54-0.36-1.86-1.17c-0.16-0.39-0.11-0.87-0.15-1.31
	c0.08-0.07,0.11-0.15,0.1-0.26c0.84-0.97,1.82-1.38,2.97-0.6C102.94,76.9,103.07,77.7,102.82,78.51z M99.64,72.55
	c-0.71,0.03-1.13-0.25-1.14-1.01c-0.01-0.73,0.4-1.06,1.01-1.13c0.79,0.04,1.16,0.42,1.15,1.13
	C100.64,72.16,100.29,72.52,99.64,72.55z M99.05,65.89c-0.7,0.21-1.44,0.61-1.9-0.35c-0.2-0.42-0.2-0.89,0.15-1.24
	c0.55-0.54,1.16-0.39,1.76-0.07C99.22,64.79,99.2,65.34,99.05,65.89z M98.09,89.11c0.34,0,0.69,0.08,1.03,0.12
	c0.03,0.09,0.09,0.13,0.19,0.13c0.15,0.41,0.4,0.81,0.43,1.23c0.08,1.06-0.5,1.72-1.53,1.8c-1.05,0.08-1.72-0.53-1.73-1.58
	C96.46,89.8,96.97,89.11,98.09,89.11z M96.16,117.39c0.22-1.2,0.82-2.07,2.14-1.93c0.9,0.09,1.49,0.71,1.53,1.7
	c0.04,0.89-0.31,1.52-1.2,1.78c-1.24,0.36-1.93-0.32-2.45-1.31C96.22,117.54,96.21,117.47,96.16,117.39z M87.22,92.1
	C87.22,92.1,87.21,92.11,87.22,92.1C87.21,92.11,87.21,92.11,87.22,92.1c-0.3,0.02-0.59,0.06-0.89,0.04
	c-0.52-0.04-0.61-0.43-0.62-0.85c-0.02-0.54,0.28-0.83,0.79-0.9c0.45-0.06,0.74,0.18,0.92,0.59C87.6,91.41,87.35,91.74,87.22,92.1
	C87.22,92.1,87.22,92.1,87.22,92.1z M86.64,113.5c0.16,0.03,0.33,0.06,0.49,0.09c0.54,0.72,0.95,1.48-0.19,1.99
	c-0.53,0.24-1.09,0.03-1.29-0.59C85.38,114.12,85.94,113.75,86.64,113.5z M87.51,109.87c-0.28-0.08-0.53-0.26-0.79-0.39
	c-0.08-0.13-0.15-0.25-0.23-0.38c-0.32-1.74,0.09-2.59,1.31-2.73c0.8-0.09,1.5,0.07,1.89,0.84c0.36,0.72,0.34,1.43-0.18,2.09
	C88.98,109.96,88.28,110.09,87.51,109.87z M89.19,82.61c0.74,0.03,1.08,0.44,1,1.15c-0.07,0.67-0.57,0.92-1.16,0.86
	c-0.73-0.08-0.96-0.62-0.86-1.29c0.03-0.23,0.18-0.45,0.28-0.68c0,0,0,0.01,0,0.01C88.7,82.64,88.94,82.6,89.19,82.61z
	 M89.69,102.96c-0.82-0.02-1.44-0.4-1.44-1.34c0-0.91,0.54-1.32,1.37-1.4c0.9,0.07,1.41,0.54,1.37,1.43
	C90.95,102.41,90.53,102.99,89.69,102.96z M92.23,114.78c0.93,0.03,1.59,0.5,1.56,1.64c0.06,1.01-0.6,1.49-1.54,1.52
	c-0.99,0.04-1.57-0.59-1.58-1.57C90.67,115.38,91.24,114.76,92.23,114.78z M93.71,111.61c-1.42-0.04-1.76-1.02-1.68-2.25
	c0.07-0.03,0.09-0.07,0.06-0.14c1.43-1.41,2.17-1.37,3.38,0.19c0,0,0.02,0.01,0.02,0.01C95.46,110.62,95.16,111.65,93.71,111.61z
	 M91.88,88.22c-0.01-0.64,0.34-1.01,1-0.98c0.47,0.02,0.85,0.21,0.9,0.77c0.06,0.64-0.19,1.05-0.84,1.13
	c-0.28,0.03-0.58-0.04-0.87-0.06c0,0-0.08,0.07-0.08,0.07l0.07-0.08C92,88.79,91.89,88.5,91.88,88.22z M94.66,105.03
	c-0.23-0.09-0.46-0.17-0.69-0.25c0,0-0.08,0.05-0.08,0.05l0.04-0.09c-0.08-0.28-0.2-0.57-0.24-0.86c-0.11-0.74,0.02-1.4,0.79-1.73
	c0.7-0.3,1.36-0.26,1.88,0.37c0.45,0.55,0.57,1.18,0.19,1.79C96.12,104.99,95.51,105.36,94.66,105.03z M96.64,98.67
	c-1.06-0.01-1.54-0.68-1.53-1.61c0.01-0.9,0.59-1.42,1.55-1.4c0.99-0.04,1.5,0.5,1.5,1.42C98.16,98.03,97.71,98.68,96.64,98.67z
	 M92.84,68.66c-0.61,0-1.04-0.36-1.07-0.98c-0.04-0.69,0.36-1.08,1-1.13c0.79,0.02,1.12,0.44,1.11,1.13
	C93.87,68.33,93.45,68.66,92.84,68.66z M91.05,61.76c-0.59-0.02-0.82-0.45-0.82-1c0-0.63,0.43-0.85,0.95-0.87
	c0.57-0.02,0.9,0.3,0.86,1.32C92.02,61.43,91.67,61.78,91.05,61.76z M91.09,93.27c0.92-0.07,1.55,0.33,1.77,1.22
	c0.19,0.76,0.06,1.47-0.66,1.97c-0.76,0.52-1.52,0.46-2.19-0.09c-0.69-0.56-0.84-1.31-0.46-2.13c0.12-0.27,0.29-0.51,0.43-0.77
	c0.1-0.01,0.17-0.06,0.22-0.15C90.5,93.3,90.8,93.29,91.09,93.27z M89.17,73.2c-0.61,0.02-1-0.33-1.05-1.01
	c0.05-0.69,0.5-1.04,1.15-1.03c0.52,0.01,0.92,0.3,0.94,0.91C90.25,72.82,89.84,73.18,89.17,73.2z M88.9,77.33c0,0,0.03,0,0.03,0
	c0.01,0.36,0.01,0.72,0.02,1.08l-0.01,0c-0.48,0.51-1.03,0.75-1.71,0.44c-0.06-0.01-0.1,0.01-0.13,0.06
	c-0.14-0.31-0.28-0.61-0.42-0.92c0.04-0.06,0.08-0.11,0.11-0.18c0.01-0.03-0.02-0.07-0.04-0.1C87.3,76.66,88.04,76.62,88.9,77.33z
	 M87.69,65.14c-0.18,0.31-0.58,0.5-0.88,0.74c-0.13,0.01-0.27,0.01-0.4,0.02c-0.52-0.29-1.03-0.58-1.02-1.3
	c0-0.54,0.14-0.94,0.69-1.16c0.52-0.21,0.97-0.15,1.36,0.22C87.89,64.09,87.98,64.64,87.69,65.14z M85.99,98.49
	c-0.03,0.93-0.59,1.35-1.43,1.31c-0.78-0.04-1.22-0.51-1.24-1.36c-0.03-0.96,0.52-1.3,1.31-1.41
	C85.51,97.15,86.02,97.57,85.99,98.49z M80.48,80.76c0.04-0.62,0.45-1.01,1.08-0.97c0.59,0.04,0.99,0.4,0.97,1.06
	c-0.02,0.66-0.39,1.05-0.99,1.05C80.84,81.91,80.43,81.46,80.48,80.76z M81.33,94.17c-0.01,0.74-0.32,1.01-0.92,0.98
	c-0.52-0.02-0.83-0.32-0.85-0.81c-0.01-0.55,0.31-0.94,0.87-0.97C81.02,93.36,81.3,93.74,81.33,94.17z M81.93,104.7
	c0.55-0.36,1.13-0.65,1.71-0.11c0.6,0.55,0.28,1.14-0.05,1.7c0,0,0,0.03,0,0.03c-0.61,0.13-1.18,0.1-1.67-0.35
	C81.93,105.54,81.93,105.12,81.93,104.7z M83.81,87.36c-0.41,0.25-0.86,0.24-1.22-0.07c-0.59-0.51-0.47-1.11-0.12-1.71
	c0.58-0.32,1.15-0.27,1.69,0.09C84.31,86.29,84.5,86.93,83.81,87.36z M84.21,70.09C84.21,70.09,84.2,70.09,84.21,70.09
	C84.2,70.09,84.2,70.09,84.21,70.09c-0.27,0.11-0.54,0.29-0.81,0.31c-0.68,0.06-1.17-0.23-1.2-0.96c-0.03-0.68,0.26-1.12,1.02-1.14
	c0.73-0.01,1.1,0.32,1.07,1.06C84.28,69.6,84.23,69.85,84.21,70.09C84.21,70.09,84.21,70.09,84.21,70.09z M82.24,73.66
	c0.1-0.02,0.17,0.01,0.22,0.09c0.29,0.06,0.34,0.27,0.34,0.52c0,0,0,0-0.01,0c0.35,0.41,0.36,0.82,0,1.23c0,0,0.01-0.01,0.01-0.01
	c-0.1,0.14-0.19,0.27-0.29,0.41c-0.52,0.43-1.15,0.74-1.75,0.35c-0.65-0.44-0.92-1.15-0.61-1.96c0.05-0.2,0.1-0.39,0.16-0.59
	c0.03-0.06,0.08-0.1,0.14-0.11C81.07,73.43,81.67,73.16,82.24,73.66z M80.42,62.7c-0.79-0.01-1.2-0.49-1.18-1.23
	c0.01-0.74,0.42-1.19,1.22-1.2c0.77,0.05,1.17,0.46,1.16,1.24C81.62,62.3,81.2,62.7,80.42,62.7z M79.02,102.6
	c0,0,0.01,0.06,0.01,0.06c-0.41,0.02-0.82,0.05-1.24,0.07c0,0,0,0.03-0.01,0.03c-0.21-0.3-0.42-0.6-0.63-0.9c0-0.15,0-0.31,0-0.46
	c0.44-0.6,0.96-1.07,1.72-0.59C79.69,101.3,79.33,101.98,79.02,102.6z M74.5,96.28c0.57,0.1,0.86,0.44,0.85,1.01
	c-0.01,0.65-0.44,0.82-0.99,0.81c-0.62-0.01-0.89-0.36-0.84-0.94C73.57,96.59,73.93,96.31,74.5,96.28z M74.57,82.51
	c0.65-0.4,1.33-0.37,1.88,0.16c0.73,0.71,0.44,1.51,0.03,2.27c-0.76,0.42-1.52,0.31-2.28,0C73.88,84.06,73.5,83.17,74.57,82.51z
	 M74.71,114.53c0.8,0.11,1.15,0.56,1.07,1.23c-0.06,0.59-0.47,1-1.1,0.97c-0.68-0.03-1.09-0.44-1.07-1.14
	C73.63,114.85,74.16,114.62,74.71,114.53z M75.39,108.82c-0.01-0.69,0.39-1.14,1.09-1.11c0.63,0.03,0.93,0.47,0.96,1.19
	c-0.03,0.56-0.38,0.94-1.01,0.94C75.81,109.83,75.4,109.45,75.39,108.82z M77.39,90.5c-0.82-0.08-1.19-0.53-1.16-1.28
	c0.03-0.7,0.46-1.14,1.13-1.1c0.67,0.03,1.01,0.51,1.01,1.21C78.37,90.04,78.04,90.43,77.39,90.5z M77.3,67.6
	c-0.65,0.01-1.07-0.44-1.07-1.15c0-0.63,0.34-1.02,0.96-1.07c0.71-0.06,1.07,0.34,1.13,0.9C78.34,67.12,77.97,67.59,77.3,67.6z
	 M76.77,71.43c0.27,0.65,0.12,1.26-0.38,1.75c-0.42,0.4-0.95,0.51-1.5,0.31c-0.68-0.24-1.02-0.79-0.99-1.47
	c0.02-0.42,0.24-0.83,0.37-1.24c0.19-0.06,0.37-0.12,0.56-0.18C75.66,70.43,76.4,70.54,76.77,71.43z M74.39,76.42
	c0.94-0.22,1.56,0.29,1.8,1.13c0.23,0.8-0.13,1.48-0.95,1.77c-0.8,0.27-1.45,0-1.88-0.75c-0.24-0.42-0.14-0.87-0.15-1.3
	c0.06-0.09,0.11-0.17,0.17-0.26C73.71,76.8,74.03,76.51,74.39,76.42z M73.62,136.85c0.77-0.8,1.67-1,2.66-0.39
	c0.29,0.18,0.54,0.41,0.81,0.62c-0.02,0.09,0.01,0.17,0.08,0.23c0.19,1.24,0.14,2.44-1.27,2.91c-0.94,0.32-1.87,0.13-2.45-0.81
	C72.9,138.53,72.86,137.64,73.62,136.85z M76.63,133.26c-0.87-0.09-1.34-0.57-1.33-1.45c0.01-0.92,0.56-1.33,1.42-1.31
	c0.89,0.02,1.34,0.53,1.32,1.42C78.03,132.84,77.5,133.22,76.63,133.26z M77.54,125.32c-0.01-0.36,0.16-0.72,0.59-0.7
	c0.41,0.02,0.78,0.19,0.77,0.71c-0.01,0.4-0.16,0.67-0.6,0.68C77.77,126.08,77.55,125.75,77.54,125.32z M78.7,118.7
	c-0.04-0.63,0.31-1,0.98-1.01c0.64-0.01,1.03,0.3,1.07,0.94c0.04,0.71-0.34,1.12-1.05,1.12C79.04,119.75,78.73,119.28,78.7,118.7z
	 M79.42,139.08c0.3-0.35,0.72-0.34,1.1-0.23c0.72,0.2,0.78,0.81,0.76,1.43c-0.45,0.6-1.06,0.69-1.75,0.57
	C79.19,140.27,78.91,139.69,79.42,139.08z M80.35,112.02c0.04-0.67,0.41-0.94,1.08-0.9c0.63,0.04,0.89,0.43,0.88,0.96
	c-0.01,0.6-0.32,1.02-0.92,1.01C80.63,113.04,80.31,112.67,80.35,112.02z M82.15,133.13c0.6-0.03,0.88,0.32,0.93,0.9
	c-0.07,0.56-0.37,0.91-0.95,0.88c-0.58-0.03-0.87-0.4-0.85-0.98C81.31,133.4,81.66,133.15,82.15,133.13z M82.48,127.59
	c-0.06-0.79,0.48-1.1,1.18-1.23c0.7,0.11,1.2,0.46,1.18,1.23c-0.02,0.76-0.49,1.13-1.24,1.12C82.87,128.7,82.54,128.23,82.48,127.59
	z M84.03,122.36c0,0,0.01-0.02,0.01-0.02c-0.08-0.08-0.16-0.15-0.23-0.23c-0.05-0.08-0.11-0.17-0.16-0.25
	c-0.1-0.86-0.07-1.65,0.81-2.15c0.88-0.5,1.46,0.08,2.11,0.5c0.03,0.56,0.05,1.11,0.08,1.67C85.89,122.67,85.04,122.93,84.03,122.36
	z M86.65,134.53c0.51-0.71,1.38-0.69,2.13-0.22c1.1,0.69,0.93,1.84-0.42,2.97c-0.36,0-0.71,0-1.07,0
	C86.21,136.56,85.9,135.57,86.65,134.53z M89.33,130.91c-0.99-0.06-1.67-0.62-1.7-1.64c-0.03-1.02,0.58-1.69,1.64-1.73
	c1.07-0.04,1.7,0.58,1.73,1.62C91.03,130.18,90.45,130.8,89.33,130.91z M90.53,124.5c-0.94-0.14-1.51-0.76-1.47-1.73
	c0.05-1.03,0.64-1.64,1.7-1.64c0.38,0,0.77,0.13,1.15,0.2c0,0,0.01,0,0.01,0c0.25,0.57,0.76,1.08,0.56,1.78
	C92.21,124.08,91.58,124.66,90.53,124.5z M92.64,135.61c0,0,0-0.03,0-0.03c0.82-0.29,1.61-0.34,2.28,0.35
	c-0.03,0.08-0.01,0.14,0.06,0.19c0.01,1.03-0.24,1.96-1.52,1.71C92.15,137.57,92.45,136.53,92.64,135.61z M94.63,124.05
	c-0.16-1.27,0.66-2.31,1.86-2.37c1.23-0.06,2.13,0.82,2.11,2.13c-0.01,0.39-0.11,0.78-0.17,1.17c0,0,0.05,0.06,0.05,0.06l-0.07-0.02
	C96.51,126.24,94.85,125.82,94.63,124.05z M98.3,136.01c0.73-0.37,1.36-0.22,1.73,0.54c0.14,0.3,0.14,0.66,0.21,1c0,0,0,0.01,0,0.01
	c-0.22,0.2-0.41,0.44-0.66,0.58c-0.72,0.38-1.38,0.27-1.75-0.48C97.51,137.03,97.59,136.38,98.3,136.01z M99.43,112.39
	c-1.09-0.08-1.56-0.73-1.51-1.76c0.05-1.1,0.75-1.57,1.76-1.52c1.05,0.06,1.55,0.71,1.52,1.82
	C101.06,111.9,100.52,112.47,99.43,112.39z M100.96,105.81c-0.95-0.09-1.53-0.64-1.52-1.6c0-0.97,0.62-1.6,1.58-1.58
	c1,0.02,1.68,0.61,1.62,1.68C102.59,105.29,101.99,105.8,100.96,105.81z M102.68,115.86c0.65-0.59,1.41-0.73,2.19-0.29
	c1.13,0.64,1.07,1.66,0.8,2.72c-1.45,1.19-2.05,1.17-3.47-0.09C102.04,117.36,101.96,116.52,102.68,115.86z M104.97,111.99
	c-0.63-0.14-0.97-0.62-1.08-1.25c-0.17-1.02,0.47-1.51,1.23-1.94c0.24,0.02,0.47,0.03,0.71,0.05c1.03,0.5,1.48,1.26,1,2.38
	C106.47,112.06,105.73,112.15,104.97,111.99z M106.85,105.12c-1.01-0.01-1.49-0.66-1.48-1.63c0.01-0.92,0.55-1.49,1.46-1.49
	c0.96,0,1.55,0.52,1.55,1.43C108.37,104.55,107.84,105.13,106.85,105.12z M109.82,114.67c1.06,0.06,1.69,0.67,1.7,1.67
	c0.01,1.1-0.69,1.71-1.82,1.69c-1.08-0.02-1.65-0.65-1.62-1.7C108.12,115.28,108.78,114.76,109.82,114.67z M111.17,110.82
	c-0.98-0.07-1.55-0.63-1.58-1.59c-0.04-1.05,0.54-1.66,1.63-1.66c1,0,1.55,0.5,1.58,1.53C112.83,110.21,112.22,110.71,111.17,110.82
	z M111.11,102.74c-0.37-0.74-0.44-1.48-0.02-2.23c0.87-0.49,1.75-0.74,2.5,0.15c0.55,0.65,0.5,1.37-0.08,1.99
	C112.76,103.46,111.93,103.17,111.11,102.74z M113.45,94.25c-0.64,0.04-1.08-0.26-1.11-0.9c-0.03-0.65,0.38-0.97,1.03-0.97
	c0.59,0,0.91,0.29,0.92,0.9C114.3,93.85,114.07,94.21,113.45,94.25z M113.38,85.08c-1.46,0.02-2.06-0.5-2.05-1.49
	c0.01-0.85,0.47-1.53,1.42-1.57c1.07-0.04,1.68,0.61,1.69,1.62C114.46,84.53,113.89,85.08,113.38,85.08z M114.42,79.75
	c-0.28,0.05-0.58,0.02-0.87,0.02c0,0-0.07,0.05-0.07,0.05c-0.41-0.41-0.82-0.83-1.23-1.24l0.03-0.07l-0.06-0.06
	c-0.04-1.04,0.17-1.98,1.29-2.36c1.12-0.37,2.31,0.29,2.52,1.34C116.27,78.6,115.62,79.55,114.42,79.75z M115.2,106.11
	c0.68-0.59,1.41-1.15,2.3-0.47c0.84,0.65,0.74,1.49,0.25,2.33c-0.1,0.03-0.16,0.1-0.2,0.19c-0.9,0.26-1.73,0.23-2.37-0.59
	c0,0,0-0.01,0-0.01C115.19,107.08,115.19,106.6,115.2,106.11z M116.86,99.55c-0.91-0.53-0.61-1.31-0.44-2.07
	c0,0,0.06-0.07,0.06-0.07c0.77-0.19,1.57-0.4,2.08,0.47c0.29,0.51,0.24,1.04-0.22,1.46C117.9,99.73,117.41,99.86,116.86,99.55z
	 M118.14,89.73L118.14,89.73C118.13,89.73,118.13,89.73,118.14,89.73c-0.2,0.03-0.39,0.08-0.58,0.1c-0.64,0.04-1.24-0.02-1.19-0.88
	c0.03-0.58,0.45-0.89,0.99-0.88c0.76,0.02,0.99,0.53,0.86,1.23C118.19,89.44,118.16,89.59,118.14,89.73
	C118.13,89.73,118.13,89.73,118.14,89.73z M118.42,72.01c0.04-0.99,0.64-1.37,1.52-1.41c1.01,0.07,1.48,0.65,1.42,1.56
	c-0.05,0.91-0.64,1.46-1.57,1.42C118.87,73.54,118.39,72.96,118.42,72.01z M122.28,77.28C122.28,77.28,122.28,77.28,122.28,77.28
	c0.01,0.39,0.01,0.78,0.02,1.17c-0.07,0.03-0.09,0.08-0.07,0.15c-1.4,1.1-2.63,0.96-2.91-0.34c-0.15-0.68,0.02-1.3,0.66-1.66
	C120.97,76.03,121.65,76.6,122.28,77.28z M119.17,82.68c0.07,0.01,0.13-0.01,0.16-0.08c0.39,0.01,0.78,0.02,1.17,0.03
	c0,0,0,0-0.01-0.01c0,0,0.01,0.01,0.01,0.01c0,0,0,0,0,0c0.79,0.82,0.68,1.58-0.13,2.31c-0.33-0.02-0.67-0.04-1-0.06
	C118.59,84.22,118.5,83.49,119.17,82.68z M120.01,102.95c0.66-0.82,1.49-1.18,2.43-0.58c0.74,0.47,0.73,1.25,0.39,1.97
	c-0.57,1.2-1.79,1.04-2.89-0.33C119.97,103.66,119.99,103.31,120.01,102.95z M121.63,95.83c-1-0.02-1.51-0.65-1.46-1.64
	c0.05-0.91,0.59-1.46,1.5-1.45c0.97,0.01,1.52,0.56,1.57,1.55C123.16,95.29,122.6,95.86,121.63,95.83z M123.11,62.07
	c-0.46,1.24-1.53,1.01-2.52,0.86c0,0-0.02,0.01-0.02,0.01c-0.21-0.29-0.41-0.59-0.62-0.88c-0.01-0.28-0.03-0.57-0.04-0.85
	c0.47-1.06,1.28-1.56,2.38-1.13C123.15,60.42,123.41,61.24,123.11,62.07z M122.96,52.92c-0.34,0.64-0.86,0.88-1.56,0.86
	c-0.6-0.02-0.98-0.39-1.39-0.73c-0.04-0.45-0.07-0.9-0.11-1.35c0.32-0.51,0.67-0.97,1.3-1.11c0.64-0.14,1.18,0.05,1.57,0.55
	C123.19,51.67,123.3,52.27,122.96,52.92z M120.74,42.4c0.9,0.01,1.33,0.51,1.42,1.31c-0.16,0.89-0.6,1.43-1.48,1.4
	c-0.91-0.03-1.33-0.64-1.29-1.47C119.43,42.87,119.9,42.39,120.74,42.4z M119.35,66.56c-0.13,1.06-0.55,1.9-1.71,2.11
	c-0.81,0.15-1.47-0.12-1.89-0.84c-0.54-0.91-0.51-1.78,0.35-2.51c0.85-0.71,1.71-0.69,2.52,0.05c0.28,0.26,0.47,0.62,0.7,0.94
	C119.28,66.4,119.29,66.48,119.35,66.56z M118.99,56.72c0.26,0.67,0.13,1.39-0.44,1.9c-0.52,0.46-1.18,0.46-1.81,0.23
	c-0.66-0.24-1-0.75-0.97-1.47c0.01-0.29,0.02-0.59,0.03-0.88c0,0-0.01,0-0.01,0c0.27-0.1,0.4-0.32,0.47-0.58
	c0.13-0.06,0.27-0.12,0.4-0.18C117.67,55.52,118.58,55.65,118.99,56.72z M117.99,48.67c0.2,1.19-0.57,1.64-1.62,1.77
	c0,0-0.13,0.01-0.13,0.01c-0.35-0.29-0.7-0.59-1.05-0.88c0.02-0.09,0.01-0.18-0.05-0.26c-0.08-0.7,0.31-1.21,0.67-1.73l0-0.01
	C116.79,47.45,117.78,47.43,117.99,48.67z M115.46,39.79c0.95-0.02,1.26,0.59,1.43,1.27c-0.13,0.96-0.59,1.45-1.47,1.44
	c-0.82-0.01-1.31-0.51-1.31-1.29C114.12,40.39,114.53,39.82,115.46,39.79z M113.89,52.97c0.53,2.31,0.02,2.96-2.29,2.86l-0.05-0.07
	l-0.09,0c-0.69-0.8-1.13-1.68-0.37-2.65c0.83-1.07,1.82-0.64,2.77-0.15C113.86,52.97,113.89,52.97,113.89,52.97z M110.38,45.08
	c0.75-0.37,1.46-0.2,2.05,0.32c0.64,0.56,0.61,1.33,0.29,2.03c-0.38,0.81-1.11,1.05-1.97,0.87c-0.28-0.06-0.56-0.16-0.84-0.25
	c-0.11-0.32-0.27-0.64-0.33-0.97C109.42,46.25,109.52,45.5,110.38,45.08z M109.12,59.57c-0.08,0.53-0.41,0.76-0.92,0.73
	c-0.53-0.03-0.79-0.3-0.75-0.86c0.04-0.58,0.41-0.76,0.89-0.74C108.84,58.73,109.12,59.04,109.12,59.57z M108.64,52.29
	c-0.12,1.06-0.73,1.68-1.74,1.69c-1.12,0.01-1.76-0.74-1.75-1.8c0-1.01,0.69-1.65,1.72-1.65C107.98,50.54,108.55,51.22,108.64,52.29
	z M104.52,43.88c0.67-0.45,1.4-0.48,2.06,0c0.71,0.51,0.95,1.22,0.6,2.07c-0.13,0.31-0.31,0.61-0.47,0.91
	c-0.15,0.05-0.3,0.1-0.46,0.15c-0.96,0.08-1.94,0.09-2.32-1.02C103.67,45.21,103.76,44.4,104.52,43.88z M103.56,58.19
	c-0.13,0.75-0.55,1.03-1.17,0.97c-0.58-0.05-0.89-0.4-0.85-1c0.04-0.7,0.5-0.9,1.12-0.87C103.29,57.32,103.44,57.78,103.56,58.19z
	 M102.82,51.34c-0.03,1.24-0.52,1.98-1.65,2.02c-1.07,0.04-1.83-0.56-1.86-1.66c-0.03-1.03,0.45-1.79,1.65-1.83
	C102.12,49.83,102.67,50.41,102.82,51.34z M97.98,44.85c0.13-0.95,0.75-1.43,1.74-1.42c0.49,0,0.76,0.42,1.18,0.54c0,0,0,0,0,0l0,0
	c0,0,0,0,0,0c0.01,0.48,0.36,0.9,0.21,1.43c-0.27,0.89-0.92,1.34-1.76,1.22C98.44,46.49,97.85,45.84,97.98,44.85z M97.62,58.76
	c-0.09,0.6-0.45,0.96-1.08,0.9c-0.64-0.07-0.89-0.55-0.85-1.15c0.04-0.58,0.43-0.86,0.98-0.83C97.31,57.71,97.62,58.1,97.62,58.76z
	 M96.14,51.7c-0.01,0.37-0.02,0.74-0.02,1.12c-0.61,0.34-1.25,0.7-1.77-0.1c-0.22-0.33-0.31-0.76,0.05-1.07
	C94.98,51.16,95.57,51.34,96.14,51.7z M94.27,46.88c-0.34,0.01-0.68,0.02-1.02,0.03c-0.22-0.19-0.43-0.39-0.65-0.58c0,0,0,0,0,0
	l-0.01-0.01c0,0,0,0,0.01,0.01c-0.04-0.5-0.08-1.02,0.55-1.17c0.42-0.1,0.87-0.17,1.24,0.16C95.05,45.9,94.21,46.35,94.27,46.88z
	 M90.96,38.1c0.23-0.25,0.55-0.41,0.84-0.61c0.24-0.01,0.48-0.02,0.72-0.02c0.45,0.29,1.04,0.39,1.31,0.91
	c0.48,0.94,0.46,1.84-0.43,2.52c-0.88,0.67-1.82,0.58-2.52-0.25C90.21,39.84,90.19,38.91,90.96,38.1z M90.77,54.17
	c-0.1,0.64-0.42,1.08-1.14,1.09c-0.73,0.01-1.12-0.42-1.11-1.09c0.01-0.6,0.36-1.01,1.03-1.03C90.24,53.12,90.66,53.45,90.77,54.17z
	 M89.57,48.13c0,0-0.02,0.12-0.02,0.12c-1.27,1.17-1.78,1.15-2.95-0.12c0.02-0.39,0.04-0.78,0.06-1.17
	c0.59-0.62,1.27-0.97,2.11-0.59C89.51,46.7,89.61,47.4,89.57,48.13z M86.75,39.06c1.18,0.06,1.97,0.94,1.95,2.15
	c-0.02,1.15-0.94,2.08-2.05,2.09c-1.15,0.01-2.13-1.01-2.11-2.2C84.55,39.89,85.51,39,86.75,39.06z M83.79,56.52
	c0.18-0.07,0.36-0.13,0.54-0.2c0.77,0,1.42,0.21,1.32,1.15c-0.08,0.71-0.63,1.03-1.29,0.86C83.33,58.05,83.6,57.25,83.79,56.52z
	 M79.69,42.34c0.62-0.66,1.45-1.02,2.4-0.54c0.3,0.15,0.62,0.29,0.93,0.44c0,0,0,0,0,0c0.68,2.06,0.17,3.34-1.42,3.54
	c-0.97,0.12-1.73-0.17-2.18-1.11C79.03,43.83,79.08,42.98,79.69,42.34z M79.47,53.87c0.14,0.53-0.11,0.99-0.54,1.24
	c-0.7,0.41-1.29,0.07-1.78-0.46c0-0.38,0-0.76,0-1.13c0.2-0.2,0.41-0.41,0.61-0.61l0.01,0.01C78.55,52.86,79.24,52.99,79.47,53.87z
	 M76.52,45.6c0.85,0.04,1.32,0.59,1.38,1.49c-0.14,0.79-0.58,1.36-1.46,1.31c-0.79-0.05-1.43-0.44-1.41-1.37
	C75.04,46.07,75.59,45.55,76.52,45.6z M74.31,57.43c0.76-0.07,1.23,0.37,1.26,1.12c0.03,0.7-0.43,1.05-1.11,1.15
	c-0.64-0.06-1.13-0.31-1.16-1.05C73.27,57.95,73.64,57.49,74.31,57.43z M70.67,50.35c0.12-0.09,0.24-0.17,0.36-0.26
	c0.65-0.53,1.35-0.63,2.01-0.08c0.55,0.46,0.65,1.11,0.31,1.74c-0.31,0.56-0.83,0.83-1.49,0.67c-0.93-0.22-1.27-0.84-1.15-1.76
	c0.01-0.09-0.02-0.19-0.04-0.29C70.67,50.38,70.67,50.35,70.67,50.35z M70.54,63.1c0.55-0.74,1.19-0.46,1.81-0.07
	c0,0.37,0.01,0.74,0.01,1.12c-0.52,0.42-1.07,0.81-1.66,0.17C70.38,63.99,70.23,63.52,70.54,63.1z M69.35,87.61
	c-0.61,0.01-1.03-0.36-1.03-0.98c0-0.54,0.36-0.9,0.91-0.97c0.65-0.08,0.96,0.32,1.08,0.77C70.29,87.2,69.98,87.61,69.35,87.61z
	 M70.24,68.75c0.08,0.32,0.02,0.68,0.02,1.02c-0.09,0.11-0.18,0.23-0.28,0.34c-0.34,0-0.7,0.05-1.03-0.03c-0.5-0.11-0.72-0.5-0.68-1
	c0.04-0.57,0.42-0.89,0.95-0.98C69.71,68.03,70.12,68.26,70.24,68.75z M68.39,54.32c0.9-0.01,1.35,0.47,1.36,1.59
	c-0.02,0.69-0.56,1.12-1.4,1.11c-0.79,0-1.29-0.5-1.29-1.29C67.05,54.91,67.48,54.32,68.39,54.32z M68.28,73.71
	c0.76-0.03,1.17,0.4,1.22,1.34c-0.02,0.57-0.34,1.02-1.14,1.07c-0.77,0.04-1.26-0.34-1.31-1.06C67,74.27,67.45,73.74,68.28,73.71z
	 M66.34,108.72c-0.24,0-0.48,0-0.71,0c-0.41-0.43-0.91-0.86-0.45-1.53c0.51-0.73,1.12-0.37,1.7-0.08
	C67.09,107.78,66.94,108.33,66.34,108.72z M65.59,59.53c0.77,0.12,1.18,0.54,1.16,1.3c-0.03,0.76-0.46,1.19-1.23,1.14
	c-0.74-0.05-1.17-0.5-1.16-1.26C64.36,59.91,64.94,59.65,65.59,59.53z M63.22,65.22c0.74,0.05,1.13,0.31,1.12,1.01
	c0,0.66-0.32,1.02-0.96,1.06c-0.73,0.05-1.11-0.38-1.11-1.06C62.27,65.57,62.75,65.32,63.22,65.22z M61.77,70.76
	c0.14,0,0.28,0,0.42,0c0.65,0.41,1.15,0.88,0.8,1.75c-0.39,0.97-1.17,0.59-1.85,0.54c0,0-0.01,0.01-0.01,0.01
	C60.79,72.13,60.72,71.29,61.77,70.76z M60.5,78.43c0-0.38,0.01-0.76,0.01-1.15c0,0-0.01,0-0.01,0c0.24-0.1,0.37-0.28,0.39-0.54
	l0.07,0.05c1.65,0.11,1.88,0.46,1.33,1.99c-0.38,0.22-0.8,0.23-1.22,0.21c0,0-0.11,0.01-0.11,0.01
	C60.8,78.81,60.65,78.62,60.5,78.43C60.49,78.43,60.5,78.43,60.5,78.43z M58.77,96.97c0.62-0.13,1.27-0.35,1.7,0.35
	c0.26,0.42,0.2,0.87-0.09,1.23c-0.5,0.61-1.1,0.49-1.7,0.13C58.34,98.08,58.41,97.52,58.77,96.97z M58.22,93
	c-0.5,0.85-1.19,0.37-1.82,0.23c0,0-0.08,0.07-0.08,0.07l0.08-0.08c-0.05-0.65-0.39-1.38,0.5-1.78c0.45-0.21,0.87-0.18,1.2,0.19
	C58.45,92.05,58.5,92.53,58.22,93z M57.45,62.39c0.72,0,0.86,0.5,0.92,1.03c-0.09,0.65-0.41,1.03-1.05,1
	c-0.62-0.03-1.01-0.37-1-1.01C56.31,62.68,56.76,62.38,57.45,62.39z M54.6,68.61c0.49-1.02,1.35-1.02,2.25-0.51
	c0.07,0.12,0.15,0.24,0.22,0.35c0.16,0.66,0.14,1.3-0.46,1.74c-0.43,0.32-0.94,0.33-1.4,0.06C54.57,69.88,54.29,69.26,54.6,68.61z
	 M55.21,73.96c0.75,0.03,0.85,0.61,0.78,1.17c-0.12,0.9-0.95,1.03-2.04,0.33c0,0,0,0,0,0c0,0,0-0.01-0.01-0.01c0,0,0,0,0,0
	C53.8,74.49,54.17,73.93,55.21,73.96z M54.54,79.75c0.97-0.35,1.61,0.05,1.8,1.08c-0.04,0.24-0.08,0.48-0.12,0.73
	c-0.79,0.54-1.64,0.89-2.2-0.2C53.72,80.78,53.78,80.02,54.54,79.75z M55.47,100.81c-0.11,0.98-0.63,1.71-1.74,1.73
	c-1.13,0.02-1.88-0.54-1.92-1.75c-0.04-1.19,0.59-1.83,1.78-1.86C54.8,98.89,55.37,99.56,55.47,100.81z M53.38,95.26
	c-0.01,0.34-0.03,0.69-0.05,1.03c-0.07,0.02-0.09,0.07-0.08,0.14c-0.78,0.75-1.63,1.34-2.76,0.8c-1.07-0.51-1.54-1.4-1.21-2.55
	c0.31-1.08,1.16-1.62,2.25-1.5C52.69,93.31,53.4,94,53.38,95.26z M49.85,66.01c0.36-0.01,0.71-0.01,1.07-0.02
	c0.31,0.53,0.59,1.09,0.02,1.6c-0.32,0.29-0.79,0.27-1.1,0.01C49.26,67.1,49.53,66.54,49.85,66.01z M48.8,70.99
	c0.72,0.03,1.04,0.49,0.99,1.2c-0.05,0.69-0.48,0.92-1.17,0.92c-0.58-0.05-0.93-0.38-0.94-1.04C47.68,71.32,48.11,70.96,48.8,70.99z
	 M48.39,76.78c0.7-0.02,1.02,0.47,1.1,1.1c-0.08,0.73-0.43,1.16-1.15,1.12c-0.72-0.04-1.02-0.52-1-1.2
	C47.36,77.13,47.82,76.8,48.39,76.78z M47.42,98.24c-0.02,1.2-0.86,2.01-2.06,1.96c-1.17-0.05-2.02-0.94-2-2.1
	c0.01-1.1,1-2.02,2.13-1.99C46.64,96.14,47.43,97.01,47.42,98.24z M45.55,92.62c-0.13,1.09-0.82,1.77-1.93,1.74
	c-1.11-0.03-1.8-0.73-1.81-1.91c-0.01-1.06,0.85-1.85,1.9-1.8C44.75,90.7,45.58,91.55,45.55,92.62z M41.49,68.38
	c0.57-0.32,1.17-0.62,1.75-0.07c0.52,0.49,0.35,1.07,0.09,1.63C41.65,70.31,41.42,70.11,41.49,68.38z M40.94,74.35
	c0.27-0.11,0.53-0.27,0.82-0.31c0.55-0.08,0.98,0.13,1.11,0.71c0.11,0.54-0.1,1-0.64,1.16c-0.59,0.17-1.08-0.11-1.29-0.68
	C40.84,74.97,40.94,74.65,40.94,74.35C40.95,74.36,40.94,74.35,40.94,74.35z M42,79.63c0.8,0.02,1.08,0.52,1.21,1.2
	c-0.12,0.69-0.39,1.21-1.2,1.23c-0.82,0.01-1.33-0.35-1.31-1.2C40.71,80.05,41.15,79.61,42,79.63z M40.81,85.6
	c0.53-0.86,1.38-1.01,2.34-0.76c0.51,0.13,0.81,0.53,1.22,0.79c0,0,0,0.01,0,0.01c0.16,1.1,0.31,2.23-0.9,2.85
	c-0.86,0.44-1.78,0.35-2.45-0.4C40.36,87.34,40.3,86.43,40.81,85.6z M41.49,101.01c-0.01,1.18-0.89,2.07-2.03,2.07
	c-1.09-0.01-2.09-1-2.08-2.07c0.01-1.12,0.95-2.03,2.09-2.03C40.68,98.99,41.51,99.81,41.49,101.01z M39.36,95.41
	c-0.02,1.22-0.69,1.83-1.86,1.81c-1.17-0.02-1.83-0.7-1.88-1.86c-0.05-1.05,0.84-1.85,2-1.82C38.66,93.65,39.38,94.18,39.36,95.41z
	 M38.37,89.61c0.02,1.21-0.82,2.06-2.04,2.09c-1.14,0.02-2.04-0.89-2.04-2.07c0-1.12,0.83-1.97,1.94-2
	C37.44,87.59,38.35,88.44,38.37,89.61z M33.49,83.77c0.01-1.15,0.93-2.06,2.09-2.03c1.17,0.02,2.04,0.94,1.99,2.12
	c-0.05,1.16-0.99,2.03-2.15,1.97C34.37,85.77,33.49,84.82,33.49,83.77z M35.04,65.48c0.19-0.19,0.37-0.38,0.56-0.58
	c0.77-0.17,1.5-0.17,1.88,0.68c0.23,0.52,0.23,1.08-0.21,1.51c-0.42,0.42-0.97,0.49-1.51,0.27C34.88,67,34.99,66.22,35.04,65.48z
	 M35.07,70.15c0.78-0.15,1.53,0.03,1.98,0.68c0.48,0.68,0.49,1.51,0.04,2.23c-0.42,0.68-1.11,0.94-1.91,0.83
	c-0.29-0.04-0.57-0.14-0.86-0.21c0,0,0,0,0,0C33.23,72.01,33.56,70.43,35.07,70.15z M35.23,76.03c1.19-0.03,2.09,0.74,2.01,1.86
	c-0.09,1.11-0.68,1.84-2.18,1.86c-0.88-0.05-1.59-0.63-1.6-1.82C33.44,76.79,33.99,76.07,35.23,76.03z M33.6,97.68
	c0.27,0.89,0.01,1.68-0.77,2.22c-0.81,0.56-1.66,0.62-2.46-0.03c-0.27-0.21-0.5-0.47-0.75-0.7c-0.01-0.55-0.02-1.11-0.03-1.66
	c0.52-0.67,1.01-1.33,2.01-1.28C32.6,96.28,33.31,96.72,33.6,97.68z M30.46,94.25c-1.07-0.02-1.64-0.69-1.64-1.7
	c0-1.1,0.66-1.7,1.67-1.75c1.21,0.09,1.82,0.66,1.79,1.81C32.25,93.78,31.54,94.28,30.46,94.25z M27.23,85.63
	c0.28-0.1,0.39-0.32,0.45-0.59l0.1-0.04c0.33-0.1,0.65-0.22,0.99-0.29c1.31-0.24,2.43,0.54,2.57,1.78c0.14,1.23-0.81,2.29-2.1,2.35
	c-1.2,0.05-2.08-0.85-2.09-2.16c0-0.34,0.06-0.69,0.09-1.03C27.24,85.65,27.23,85.63,27.23,85.63z M29.61,63.73
	c0.74-0.56,1.51-0.68,2.33-0.17c0,0,0.09,0.07,0.09,0.07c0.38,0.88,0.26,1.66-0.51,2.29c-0.43,0-0.86,0.01-1.3,0.01
	c-0.22-0.21-0.43-0.41-0.65-0.62c0.02-0.09-0.01-0.17-0.07-0.24c0-0.3-0.01-0.6-0.01-0.89C29.54,64.03,29.57,63.88,29.61,63.73z
	 M29.89,68.41c0.82-0.02,1.22,0.53,1.32,1.39c0,0.8-0.52,1.18-1.3,1.21c-0.72,0.02-1.24-0.33-1.29-1.12
	C28.57,68.99,29.01,68.43,29.89,68.41z M28.11,74.48c0.28-0.95,1.03-1.11,1.91-0.81c0.23,0.08,0.43,0.23,0.65,0.35
	c-0.01,0.1,0.03,0.19,0.1,0.26c0,0.2,0.01,0.4,0.01,0.59c-0.02,1.08-0.64,1.56-1.64,1.4C28.15,76.12,27.86,75.35,28.11,74.48z
	 M28.71,78.48c1.27-0.03,2.37,1.05,2.38,2.33c0.01,1.34-0.97,2.37-2.29,2.4c-1.36,0.04-2.4-1.03-2.38-2.47
	C26.43,79.55,27.5,78.5,28.71,78.48z M185.63,187.4c-22.34-0.01-44.69-0.01-67.03-0.01c-31.36,0-62.72,0-94.08,0.03
	c-1.09,0-1.58-0.17-1.53-1.43c0.11-2.67,0.05-5.35,0.03-8.02c0-0.64,0.08-1.03,0.81-1.34c9.08-3.77,18.13-7.59,27.19-11.4
	c3.96-1.67,7.92-3.34,11.88-5.02c0.64-0.27,1.23-0.25,1.87-0.03c8.93,3.07,17.86,6.13,26.79,9.17c3.65,1.24,7.31,2.45,10.96,3.69
	c0.7,0.24,1.12,0.17,1.58-0.53c1.8-2.71,3.71-5.36,5.56-8.04c6.38-9.25,12.77-18.49,19.08-27.78c0.77-1.13,1.52-1.26,2.7-0.95
	c7.39,2,14.81,3.92,22.19,5.95c1.11,0.3,1.69,0.11,2.32-0.82c9.19-13.52,18.41-27.03,27.63-40.53c1.11-1.62,2.22-3.24,3.33-4.86
	c0.11,0.03,0.22,0.07,0.32,0.1c0,1.18,0,2.35,0,3.53c0,28.98,0,57.96,0.04,86.95C187.27,187.47,186.59,187.41,185.63,187.4z"/>
</svg>
