<?xml version="1.0" standalone="no"?>
<!DOCTYPE svg PUBLIC "-//W3C//DTD SVG 20010904//EN"
 "http://www.w3.org/TR/2001/REC-SVG-20010904/DTD/svg10.dtd">
<svg version="1.0" xmlns="http://www.w3.org/2000/svg"
 width="2212.000000pt" height="701.000000pt" viewBox="0 0 2212.000000 701.000000"
 preserveAspectRatio="xMidYMid meet">
<metadata>
Created by potrace 1.15, written by Peter Selinger 2001-2017
</metadata>
<g transform="translate(0.000000,701.000000) scale(0.100000,-0.100000)"
fill="#000000" stroke="none">
<path d="M8671 6028 c-10 -24 -530 -1195 -1156 -2603 -625 -1408 -1140 -2568
-1142 -2577 -5 -17 26 -18 558 -18 l564 0 214 500 213 500 1333 0 1333 0 213
-500 214 -500 563 0 c309 0 562 3 562 8 0 4 -93 217 -207 475 l-208 468 -685
672 c-376 369 -805 791 -952 936 -148 145 -271 262 -273 259 -3 -3 78 -200
180 -437 102 -238 185 -435 185 -437 0 -2 -417 -4 -926 -4 -877 0 -925 1 -920
18 4 9 212 497 464 1083 l457 1066 119 -278 119 -277 161 -153 c435 -411 512
-483 411 -383 -60 60 -207 201 -325 313 -118 112 -216 207 -218 211 -2 7 507
901 558 980 8 12 15 9 45 -20 19 -18 35 -32 35 -29 0 2 -76 175 -169 384
l-169 380 -566 3 -567 2 -18 -42z"/>
<path d="M17440 5483 l0 -588 507 -460 c278 -253 510 -461 514 -463 5 -2 9
258 9 577 l0 581 853 0 c948 0 911 2 1061 -69 257 -121 399 -337 435 -660 39
-353 -136 -669 -491 -882 l-81 -49 -894 0 c-767 0 -897 2 -916 15 -21 13 -55
1 -510 -188 l-487 -202 0 -1132 0 -1133 515 0 515 0 0 870 0 870 463 0 462 -1
740 -869 740 -869 623 -1 c343 0 622 4 620 8 -1 5 -361 408 -798 895 -780 870
-795 888 -798 932 -3 40 -1 45 20 49 13 2 66 12 118 21 501 88 889 408 1080
891 55 137 79 253 91 431 37 569 -107 1064 -414 1424 -224 262 -561 466 -924
559 l-114 30 -1470 0 -1469 0 0 -587z"/>
</g>
</svg>
